<mxfile host="app.diagrams.net" modified="2024-04-02T07:11:28.390Z" agent="Mozilla/5.0 (X11; Ubuntu; Linux x86_64; rv:123.0) Gecko/20100101 Firefox/123.0" etag="LyNuq9gqc4H7llaX-8YC" version="24.0.5" type="github">
  <diagram name="Page-1" id="-fXA4bsgAeh3gqAKFFjx">
    <mxGraphModel dx="4224" dy="714" grid="1" gridSize="10" guides="1" tooltips="1" connect="1" arrows="1" fold="1" page="1" pageScale="1" pageWidth="850" pageHeight="1100" math="0" shadow="0">
      <root>
        <mxCell id="0" />
        <mxCell id="1" parent="0" />
        <UserObject label="" plantUmlData="{&quot;data&quot;:&quot;@startuml\n\nclass User {\n    - userId: int\n    - username: string\n    - password: string\n    - email: string\n    - role: Role\n    - profile: UserProfile\n    + login(username: string, password: string): boolean\n    + logout(): void\n    + updateProfile(profile: UserProfile): void\n}\n\nclass Admin {\n    - role: Role\n    + getRole(): Role\n    + manageUsers(): void\n    + manageContent(): void\n    + manageSubscriptions(): void\n    + viewSubscriptionHistory(): void\n    + cancelSubscription(): void\n}\n\nclass ActiveUser {\n    - role: Role\n    - subscription: Subscription\n    + getSubscription(): Subscription\n    + getRole(): Role\n}\n\nclass Subscription {\n    - subscriptionId: int\n    - type: SubscriptionType\n    - startDate: Date\n    - endDate: Date\n    - isActive: boolean\n    + getSubscriptionType(): SubscriptionType\n    + getStartDate(): Date\n    + getEndDate(): Date\n    + isActive(): boolean\n}\n\nclass Video {\n    - videoId: int\n    - title: string\n    - description: string\n    - url: string\n    - uploadedBy: User\n    - category: VideoCategory\n    + getTitle(): string\n    + getDescription(): string\n    + getURL(): string\n    + getUploadedBy(): User\n    + getCategory(): VideoCategory\n}\n\nclass VideoCategory {\n    - categoryId: int\n    - name: string\n    + getName(): string\n}\n\nclass Payment {\n    - paymentId: int\n    - user: User\n    - amount: double\n    - paymentDate: Date\n    - paymentStatus: PaymentStatus\n    + getUser(): User\n    + getAmount(): double\n    + getPaymentDate(): Date\n    + getPaymentStatus(): PaymentStatus\n}\n\nclass FrontDeskStaff {\n    - staffId: int\n    - fullName: string\n    - email: string\n    + getFullName(): string\n    + getEmail(): string\n}\n\nclass Department {\n    - departmentId: int\n    - name: string\n    + getName(): string\n}\n\nclass School {\n    - schoolId: int\n    - name: string\n    + getName(): string\n}\n\nclass Course {\n    - courseId: int\n    - name: string\n    - department: Department\n    + getName(): string\n    + getDepartment(): Department\n}\n\nclass PastQuestionPaper {\n    - pastQuestionPaperId: int\n    - title: string\n    - content: string\n    - course: Course\n    + getTitle(): string\n    + getContent(): string\n    + getCourse(): Course\n}\n\nUser &lt;|-- Admin\nUser &lt;|-- ActiveUser\n\nUser \&quot;1\&quot; -- \&quot;1\&quot; UserProfile\nUserProfile \&quot;1\&quot; -- \&quot;1\&quot; Subscription\nUser \&quot;1\&quot; -- \&quot;0..*\&quot; PastQuestionPaper\nCourse \&quot;1\&quot; -- \&quot;0..*\&quot; PastQuestionPaper\nCourse \&quot;1\&quot; -- \&quot;1\&quot; Department\nDepartment \&quot;1\&quot; -- \&quot;1\&quot; School\n\n@enduml\n&quot;,&quot;format&quot;:&quot;svg&quot;}" id="kxoWetvG2L5ZNaT5IJs3-2">
          <mxCell style="shape=image;noLabel=1;verticalAlign=top;aspect=fixed;imageAspect=0;image=data:image/svg+xml,PD94bWwgdmVyc2lvbj0iMS4wIiBlbmNvZGluZz0idXMtYXNjaWkiIHN0YW5kYWxvbmU9Im5vIj8+PHN2ZyB4bWxucz0iaHR0cDovL3d3dy53My5vcmcvMjAwMC9zdmciIHhtbG5zOnhsaW5rPSJodHRwOi8vd3d3LnczLm9yZy8xOTk5L3hsaW5rIiBjb250ZW50U3R5bGVUeXBlPSJ0ZXh0L2NzcyIgaGVpZ2h0PSI3MTJweCIgcHJlc2VydmVBc3BlY3RSYXRpbz0ibm9uZSIgc3R5bGU9IndpZHRoOjE2MDRweDtoZWlnaHQ6NzEycHg7YmFja2dyb3VuZDojRkZGRkZGOyIgdmVyc2lvbj0iMS4xIiB2aWV3Qm94PSIwIDAgMTYwNCA3MTIiIHdpZHRoPSIxNjA0cHgiIHpvb21BbmRQYW49Im1hZ25pZnkiPjxkZWZzLz48Zz48IS0tY2xhc3MgVXNlci0tPjxnIGlkPSJlbGVtX1VzZXIiPjxyZWN0IGNvZGVMaW5lPSIxIiBmaWxsPSIjRjFGMUYxIiBoZWlnaHQ9IjE4Mi44NTk0IiBpZD0iVXNlciIgcng9IjIuNSIgcnk9IjIuNSIgc3R5bGU9InN0cm9rZTojMTgxODE4O3N0cm9rZS13aWR0aDowLjU7IiB3aWR0aD0iMzgwIiB4PSI4MTEuNSIgeT0iMjIiLz48ZWxsaXBzZSBjeD0iOTgzLjI1IiBjeT0iMzgiIGZpbGw9IiNBREQxQjIiIHJ4PSIxMSIgcnk9IjExIiBzdHlsZT0ic3Ryb2tlOiMxODE4MTg7c3Ryb2tlLXdpZHRoOjEuMDsiLz48cGF0aCBkPSJNOTgwLjg3NSw0Mi4yNSBMOTgwLjg3NSw0NCBMOTg1LjgxMjUsNDQgTDk4NS44MTI1LDQyLjI1IEw5ODAuODc1LDQyLjI1IFogTTk4MS41NjI1LDQyLjkzNzUgUTk4MS41NjI1LDQyLjkzNzUgOTgxLjU2MjUsMzMuNzUgTDk3OS44MTI1LDMzLjc1IFE5NzkuODEyNSwzMy43NSA5NzkuODEyNSw0Mi45Mzc1IEw5ODEuNTYyNSw0Mi45Mzc1IFogTTk4NS4xMjUsNDIuOTM3NSBMOTg2Ljg3NSw0Mi45Mzc1IFE5ODYuODc1LDQyLjkzNzUgOTg2Ljg3NSw0MC4xMjUgTDk4NS4xMjUsNDAuMTI1IFE5ODUuMTI1LDQwLjEyNSA5ODUuMTI1LDQyLjkzNzUgWiBNOTg1LjEyNSwzMy43NSBROTg1LjEyNSwzMy43NSA5ODUuMTI1LDM2LjU2MjUgTDk4Ni44NzUsMzYuNTYyNSBROTg2Ljg3NSwzNi41NjI1IDk4Ni44NzUsMzMuNzUgTDk4NS4xMjUsMzMuNzUgWiBNOTgwLjg3NSwzNC40Mzc1IEw5ODUuODEyNSwzNC40Mzc1IEw5ODUuODEyNSwzMi42ODc1IEw5ODAuODc1LDMyLjY4NzUgTDk4MC44NzUsMzQuNDM3NSBaICIgZmlsbD0iIzAwMDAwMCIvPjx0ZXh0IGZpbGw9IiMwMDAwMDAiIGZvbnQtZmFtaWx5PSJzYW5zLXNlcmlmIiBmb250LXNpemU9IjE0IiBsZW5ndGhBZGp1c3Q9InNwYWNpbmciIHRleHRMZW5ndGg9IjI4IiB4PSIxMDAzLjc1IiB5PSI0My43NDIyIj5Vc2VyPC90ZXh0PjxsaW5lIHN0eWxlPSJzdHJva2U6IzE4MTgxODtzdHJva2Utd2lkdGg6MC41OyIgeDE9IjgxMi41IiB4Mj0iMTE5MC41IiB5MT0iNTQiIHkyPSI1NCIvPjxyZWN0IGZpbGw9Im5vbmUiIGhlaWdodD0iNiIgc3R5bGU9InN0cm9rZTojQzgyOTMwO3N0cm9rZS13aWR0aDoxLjA7IiB3aWR0aD0iNiIgeD0iODE5LjUiIHk9IjYzLjk5MjIiLz48dGV4dCBmaWxsPSIjMDAwMDAwIiBmb250LWZhbWlseT0ic2Fucy1zZXJpZiIgZm9udC1zaXplPSIxNCIgbGVuZ3RoQWRqdXN0PSJzcGFjaW5nIiB0ZXh0TGVuZ3RoPSI3NyIgeD0iODMxLjUiIHk9IjcxLjIzNDQiPnVzZXJJZDogaW50PC90ZXh0PjxyZWN0IGZpbGw9Im5vbmUiIGhlaWdodD0iNiIgc3R5bGU9InN0cm9rZTojQzgyOTMwO3N0cm9rZS13aWR0aDoxLjA7IiB3aWR0aD0iNiIgeD0iODE5LjUiIHk9Ijc4Ljk3NjYiLz48dGV4dCBmaWxsPSIjMDAwMDAwIiBmb250LWZhbWlseT0ic2Fucy1zZXJpZiIgZm9udC1zaXplPSIxNCIgbGVuZ3RoQWRqdXN0PSJzcGFjaW5nIiB0ZXh0TGVuZ3RoPSIxMTMiIHg9IjgzMS41IiB5PSI4Ni4yMTg4Ij51c2VybmFtZTogc3RyaW5nPC90ZXh0PjxyZWN0IGZpbGw9Im5vbmUiIGhlaWdodD0iNiIgc3R5bGU9InN0cm9rZTojQzgyOTMwO3N0cm9rZS13aWR0aDoxLjA7IiB3aWR0aD0iNiIgeD0iODE5LjUiIHk9IjkzLjk2MDkiLz48dGV4dCBmaWxsPSIjMDAwMDAwIiBmb250LWZhbWlseT0ic2Fucy1zZXJpZiIgZm9udC1zaXplPSIxNCIgbGVuZ3RoQWRqdXN0PSJzcGFjaW5nIiB0ZXh0TGVuZ3RoPSIxMTMiIHg9IjgzMS41IiB5PSIxMDEuMjAzMSI+cGFzc3dvcmQ6IHN0cmluZzwvdGV4dD48cmVjdCBmaWxsPSJub25lIiBoZWlnaHQ9IjYiIHN0eWxlPSJzdHJva2U6I0M4MjkzMDtzdHJva2Utd2lkdGg6MS4wOyIgd2lkdGg9IjYiIHg9IjgxOS41IiB5PSIxMDguOTQ1MyIvPjx0ZXh0IGZpbGw9IiMwMDAwMDAiIGZvbnQtZmFtaWx5PSJzYW5zLXNlcmlmIiBmb250LXNpemU9IjE0IiBsZW5ndGhBZGp1c3Q9InNwYWNpbmciIHRleHRMZW5ndGg9IjkyIiB4PSI4MzEuNSIgeT0iMTE2LjE4NzUiPmVtYWlsOiBzdHJpbmc8L3RleHQ+PHJlY3QgZmlsbD0ibm9uZSIgaGVpZ2h0PSI2IiBzdHlsZT0ic3Ryb2tlOiNDODI5MzA7c3Ryb2tlLXdpZHRoOjEuMDsiIHdpZHRoPSI2IiB4PSI4MTkuNSIgeT0iMTIzLjkyOTciLz48dGV4dCBmaWxsPSIjMDAwMDAwIiBmb250LWZhbWlseT0ic2Fucy1zZXJpZiIgZm9udC1zaXplPSIxNCIgbGVuZ3RoQWRqdXN0PSJzcGFjaW5nIiB0ZXh0TGVuZ3RoPSI3MCIgeD0iODMxLjUiIHk9IjEzMS4xNzE5Ij5yb2xlOiBSb2xlPC90ZXh0PjxyZWN0IGZpbGw9Im5vbmUiIGhlaWdodD0iNiIgc3R5bGU9InN0cm9rZTojQzgyOTMwO3N0cm9rZS13aWR0aDoxLjA7IiB3aWR0aD0iNiIgeD0iODE5LjUiIHk9IjEzOC45MTQxIi8+PHRleHQgZmlsbD0iIzAwMDAwMCIgZm9udC1mYW1pbHk9InNhbnMtc2VyaWYiIGZvbnQtc2l6ZT0iMTQiIGxlbmd0aEFkanVzdD0ic3BhY2luZyIgdGV4dExlbmd0aD0iMTQwIiB4PSI4MzEuNSIgeT0iMTQ2LjE1NjMiPnByb2ZpbGU6IFVzZXJQcm9maWxlPC90ZXh0PjxsaW5lIHN0eWxlPSJzdHJva2U6IzE4MTgxODtzdHJva2Utd2lkdGg6MC41OyIgeDE9IjgxMi41IiB4Mj0iMTE5MC41IiB5MT0iMTUxLjkwNjMiIHkyPSIxNTEuOTA2MyIvPjxlbGxpcHNlIGN4PSI4MjIuNSIgY3k9IjE2NC44OTg0IiBmaWxsPSIjODRCRTg0IiByeD0iMyIgcnk9IjMiIHN0eWxlPSJzdHJva2U6IzAzODA0ODtzdHJva2Utd2lkdGg6MS4wOyIvPjx0ZXh0IGZpbGw9IiMwMDAwMDAiIGZvbnQtZmFtaWx5PSJzYW5zLXNlcmlmIiBmb250LXNpemU9IjE0IiBsZW5ndGhBZGp1c3Q9InNwYWNpbmciIHRleHRMZW5ndGg9IjM1NCIgeD0iODMxLjUiIHk9IjE2OS4xNDA2Ij5sb2dpbih1c2VybmFtZTogc3RyaW5nLCBwYXNzd29yZDogc3RyaW5nKTogYm9vbGVhbjwvdGV4dD48ZWxsaXBzZSBjeD0iODIyLjUiIGN5PSIxNzkuODgyOCIgZmlsbD0iIzg0QkU4NCIgcng9IjMiIHJ5PSIzIiBzdHlsZT0ic3Ryb2tlOiMwMzgwNDg7c3Ryb2tlLXdpZHRoOjEuMDsiLz48dGV4dCBmaWxsPSIjMDAwMDAwIiBmb250LWZhbWlseT0ic2Fucy1zZXJpZiIgZm9udC1zaXplPSIxNCIgbGVuZ3RoQWRqdXN0PSJzcGFjaW5nIiB0ZXh0TGVuZ3RoPSIxMDAiIHg9IjgzMS41IiB5PSIxODQuMTI1Ij5sb2dvdXQoKTogdm9pZDwvdGV4dD48ZWxsaXBzZSBjeD0iODIyLjUiIGN5PSIxOTQuODY3MiIgZmlsbD0iIzg0QkU4NCIgcng9IjMiIHJ5PSIzIiBzdHlsZT0ic3Ryb2tlOiMwMzgwNDg7c3Ryb2tlLXdpZHRoOjEuMDsiLz48dGV4dCBmaWxsPSIjMDAwMDAwIiBmb250LWZhbWlseT0ic2Fucy1zZXJpZiIgZm9udC1zaXplPSIxNCIgbGVuZ3RoQWRqdXN0PSJzcGFjaW5nIiB0ZXh0TGVuZ3RoPSIyODkiIHg9IjgzMS41IiB5PSIxOTkuMTA5NCI+dXBkYXRlUHJvZmlsZShwcm9maWxlOiBVc2VyUHJvZmlsZSk6IHZvaWQ8L3RleHQ+PC9nPjwhLS1jbGFzcyBBZG1pbi0tPjxnIGlkPSJlbGVtX0FkbWluIj48cmVjdCBjb2RlTGluZT0iMTMiIGZpbGw9IiNGMUYxRjEiIGhlaWdodD0iMTUyLjg5MDYiIGlkPSJBZG1pbiIgcng9IjIuNSIgcnk9IjIuNSIgc3R5bGU9InN0cm9rZTojMTgxODE4O3N0cm9rZS13aWR0aDowLjU7IiB3aWR0aD0iMjQ2IiB4PSI1MTQuNSIgeT0iMjk1Ii8+PGVsbGlwc2UgY3g9IjYxNS4yNSIgY3k9IjMxMSIgZmlsbD0iI0FERDFCMiIgcng9IjExIiByeT0iMTEiIHN0eWxlPSJzdHJva2U6IzE4MTgxODtzdHJva2Utd2lkdGg6MS4wOyIvPjxwYXRoIGQ9Ik02MTIuODc1LDMxNS4yNSBMNjEyLjg3NSwzMTcgTDYxNy44MTI1LDMxNyBMNjE3LjgxMjUsMzE1LjI1IEw2MTIuODc1LDMxNS4yNSBaIE02MTMuNTYyNSwzMTUuOTM3NSBRNjEzLjU2MjUsMzE1LjkzNzUgNjEzLjU2MjUsMzA2Ljc1IEw2MTEuODEyNSwzMDYuNzUgUTYxMS44MTI1LDMwNi43NSA2MTEuODEyNSwzMTUuOTM3NSBMNjEzLjU2MjUsMzE1LjkzNzUgWiBNNjE3LjEyNSwzMTUuOTM3NSBMNjE4Ljg3NSwzMTUuOTM3NSBRNjE4Ljg3NSwzMTUuOTM3NSA2MTguODc1LDMxMy4xMjUgTDYxNy4xMjUsMzEzLjEyNSBRNjE3LjEyNSwzMTMuMTI1IDYxNy4xMjUsMzE1LjkzNzUgWiBNNjE3LjEyNSwzMDYuNzUgUTYxNy4xMjUsMzA2Ljc1IDYxNy4xMjUsMzA5LjU2MjUgTDYxOC44NzUsMzA5LjU2MjUgUTYxOC44NzUsMzA5LjU2MjUgNjE4Ljg3NSwzMDYuNzUgTDYxNy4xMjUsMzA2Ljc1IFogTTYxMi44NzUsMzA3LjQzNzUgTDYxNy44MTI1LDMwNy40Mzc1IEw2MTcuODEyNSwzMDUuNjg3NSBMNjEyLjg3NSwzMDUuNjg3NSBMNjEyLjg3NSwzMDcuNDM3NSBaICIgZmlsbD0iIzAwMDAwMCIvPjx0ZXh0IGZpbGw9IiMwMDAwMDAiIGZvbnQtZmFtaWx5PSJzYW5zLXNlcmlmIiBmb250LXNpemU9IjE0IiBsZW5ndGhBZGp1c3Q9InNwYWNpbmciIHRleHRMZW5ndGg9IjM2IiB4PSI2MzUuNzUiIHk9IjMxNi43NDIyIj5BZG1pbjwvdGV4dD48bGluZSBzdHlsZT0ic3Ryb2tlOiMxODE4MTg7c3Ryb2tlLXdpZHRoOjAuNTsiIHgxPSI1MTUuNSIgeDI9Ijc1OS41IiB5MT0iMzI3IiB5Mj0iMzI3Ii8+PHJlY3QgZmlsbD0ibm9uZSIgaGVpZ2h0PSI2IiBzdHlsZT0ic3Ryb2tlOiNDODI5MzA7c3Ryb2tlLXdpZHRoOjEuMDsiIHdpZHRoPSI2IiB4PSI1MjIuNSIgeT0iMzM2Ljk5MjIiLz48dGV4dCBmaWxsPSIjMDAwMDAwIiBmb250LWZhbWlseT0ic2Fucy1zZXJpZiIgZm9udC1zaXplPSIxNCIgbGVuZ3RoQWRqdXN0PSJzcGFjaW5nIiB0ZXh0TGVuZ3RoPSI3MCIgeD0iNTM0LjUiIHk9IjM0NC4yMzQ0Ij5yb2xlOiBSb2xlPC90ZXh0PjxsaW5lIHN0eWxlPSJzdHJva2U6IzE4MTgxODtzdHJva2Utd2lkdGg6MC41OyIgeDE9IjUxNS41IiB4Mj0iNzU5LjUiIHkxPSIzNDkuOTg0NCIgeTI9IjM0OS45ODQ0Ii8+PGVsbGlwc2UgY3g9IjUyNS41IiBjeT0iMzYyLjk3NjYiIGZpbGw9IiM4NEJFODQiIHJ4PSIzIiByeT0iMyIgc3R5bGU9InN0cm9rZTojMDM4MDQ4O3N0cm9rZS13aWR0aDoxLjA7Ii8+PHRleHQgZmlsbD0iIzAwMDAwMCIgZm9udC1mYW1pbHk9InNhbnMtc2VyaWYiIGZvbnQtc2l6ZT0iMTQiIGxlbmd0aEFkanVzdD0ic3BhY2luZyIgdGV4dExlbmd0aD0iMTA3IiB4PSI1MzQuNSIgeT0iMzY3LjIxODgiPmdldFJvbGUoKTogUm9sZTwvdGV4dD48ZWxsaXBzZSBjeD0iNTI1LjUiIGN5PSIzNzcuOTYwOSIgZmlsbD0iIzg0QkU4NCIgcng9IjMiIHJ5PSIzIiBzdHlsZT0ic3Ryb2tlOiMwMzgwNDg7c3Ryb2tlLXdpZHRoOjEuMDsiLz48dGV4dCBmaWxsPSIjMDAwMDAwIiBmb250LWZhbWlseT0ic2Fucy1zZXJpZiIgZm9udC1zaXplPSIxNCIgbGVuZ3RoQWRqdXN0PSJzcGFjaW5nIiB0ZXh0TGVuZ3RoPSIxMzYiIHg9IjUzNC41IiB5PSIzODIuMjAzMSI+bWFuYWdlVXNlcnMoKTogdm9pZDwvdGV4dD48ZWxsaXBzZSBjeD0iNTI1LjUiIGN5PSIzOTIuOTQ1MyIgZmlsbD0iIzg0QkU4NCIgcng9IjMiIHJ5PSIzIiBzdHlsZT0ic3Ryb2tlOiMwMzgwNDg7c3Ryb2tlLXdpZHRoOjEuMDsiLz48dGV4dCBmaWxsPSIjMDAwMDAwIiBmb250LWZhbWlseT0ic2Fucy1zZXJpZiIgZm9udC1zaXplPSIxNCIgbGVuZ3RoQWRqdXN0PSJzcGFjaW5nIiB0ZXh0TGVuZ3RoPSIxNTAiIHg9IjUzNC41IiB5PSIzOTcuMTg3NSI+bWFuYWdlQ29udGVudCgpOiB2b2lkPC90ZXh0PjxlbGxpcHNlIGN4PSI1MjUuNSIgY3k9IjQwNy45Mjk3IiBmaWxsPSIjODRCRTg0IiByeD0iMyIgcnk9IjMiIHN0eWxlPSJzdHJva2U6IzAzODA0ODtzdHJva2Utd2lkdGg6MS4wOyIvPjx0ZXh0IGZpbGw9IiMwMDAwMDAiIGZvbnQtZmFtaWx5PSJzYW5zLXNlcmlmIiBmb250LXNpemU9IjE0IiBsZW5ndGhBZGp1c3Q9InNwYWNpbmciIHRleHRMZW5ndGg9IjE5MiIgeD0iNTM0LjUiIHk9IjQxMi4xNzE5Ij5tYW5hZ2VTdWJzY3JpcHRpb25zKCk6IHZvaWQ8L3RleHQ+PGVsbGlwc2UgY3g9IjUyNS41IiBjeT0iNDIyLjkxNDEiIGZpbGw9IiM4NEJFODQiIHJ4PSIzIiByeT0iMyIgc3R5bGU9InN0cm9rZTojMDM4MDQ4O3N0cm9rZS13aWR0aDoxLjA7Ii8+PHRleHQgZmlsbD0iIzAwMDAwMCIgZm9udC1mYW1pbHk9InNhbnMtc2VyaWYiIGZvbnQtc2l6ZT0iMTQiIGxlbmd0aEFkanVzdD0ic3BhY2luZyIgdGV4dExlbmd0aD0iMjIwIiB4PSI1MzQuNSIgeT0iNDI3LjE1NjMiPnZpZXdTdWJzY3JpcHRpb25IaXN0b3J5KCk6IHZvaWQ8L3RleHQ+PGVsbGlwc2UgY3g9IjUyNS41IiBjeT0iNDM3Ljg5ODQiIGZpbGw9IiM4NEJFODQiIHJ4PSIzIiByeT0iMyIgc3R5bGU9InN0cm9rZTojMDM4MDQ4O3N0cm9rZS13aWR0aDoxLjA7Ii8+PHRleHQgZmlsbD0iIzAwMDAwMCIgZm9udC1mYW1pbHk9InNhbnMtc2VyaWYiIGZvbnQtc2l6ZT0iMTQiIGxlbmd0aEFkanVzdD0ic3BhY2luZyIgdGV4dExlbmd0aD0iMTg0IiB4PSI1MzQuNSIgeT0iNDQyLjE0MDYiPmNhbmNlbFN1YnNjcmlwdGlvbigpOiB2b2lkPC90ZXh0PjwvZz48IS0tY2xhc3MgQWN0aXZlVXNlci0tPjxnIGlkPSJlbGVtX0FjdGl2ZVVzZXIiPjxyZWN0IGNvZGVMaW5lPSIyMyIgZmlsbD0iI0YxRjFGMSIgaGVpZ2h0PSIxMDcuOTM3NSIgaWQ9IkFjdGl2ZVVzZXIiIHJ4PSIyLjUiIHJ5PSIyLjUiIHN0eWxlPSJzdHJva2U6IzE4MTgxODtzdHJva2Utd2lkdGg6MC41OyIgd2lkdGg9IjI0NSIgeD0iNzk2IiB5PSIzMTcuNSIvPjxlbGxpcHNlIGN4PSI4NzkuMjUiIGN5PSIzMzMuNSIgZmlsbD0iI0FERDFCMiIgcng9IjExIiByeT0iMTEiIHN0eWxlPSJzdHJva2U6IzE4MTgxODtzdHJva2Utd2lkdGg6MS4wOyIvPjxwYXRoIGQ9Ik04NzYuODc1LDMzNy43NSBMODc2Ljg3NSwzMzkuNSBMODgxLjgxMjUsMzM5LjUgTDg4MS44MTI1LDMzNy43NSBMODc2Ljg3NSwzMzcuNzUgWiBNODc3LjU2MjUsMzM4LjQzNzUgUTg3Ny41NjI1LDMzOC40Mzc1IDg3Ny41NjI1LDMyOS4yNSBMODc1LjgxMjUsMzI5LjI1IFE4NzUuODEyNSwzMjkuMjUgODc1LjgxMjUsMzM4LjQzNzUgTDg3Ny41NjI1LDMzOC40Mzc1IFogTTg4MS4xMjUsMzM4LjQzNzUgTDg4Mi44NzUsMzM4LjQzNzUgUTg4Mi44NzUsMzM4LjQzNzUgODgyLjg3NSwzMzUuNjI1IEw4ODEuMTI1LDMzNS42MjUgUTg4MS4xMjUsMzM1LjYyNSA4ODEuMTI1LDMzOC40Mzc1IFogTTg4MS4xMjUsMzI5LjI1IFE4ODEuMTI1LDMyOS4yNSA4ODEuMTI1LDMzMi4wNjI1IEw4ODIuODc1LDMzMi4wNjI1IFE4ODIuODc1LDMzMi4wNjI1IDg4Mi44NzUsMzI5LjI1IEw4ODEuMTI1LDMyOS4yNSBaIE04NzYuODc1LDMyOS45Mzc1IEw4ODEuODEyNSwzMjkuOTM3NSBMODgxLjgxMjUsMzI4LjE4NzUgTDg3Ni44NzUsMzI4LjE4NzUgTDg3Ni44NzUsMzI5LjkzNzUgWiAiIGZpbGw9IiMwMDAwMDAiLz48dGV4dCBmaWxsPSIjMDAwMDAwIiBmb250LWZhbWlseT0ic2Fucy1zZXJpZiIgZm9udC1zaXplPSIxNCIgbGVuZ3RoQWRqdXN0PSJzcGFjaW5nIiB0ZXh0TGVuZ3RoPSI3MCIgeD0iODk5Ljc1IiB5PSIzMzkuMjQyMiI+QWN0aXZlVXNlcjwvdGV4dD48bGluZSBzdHlsZT0ic3Ryb2tlOiMxODE4MTg7c3Ryb2tlLXdpZHRoOjAuNTsiIHgxPSI3OTciIHgyPSIxMDQwIiB5MT0iMzQ5LjUiIHkyPSIzNDkuNSIvPjxyZWN0IGZpbGw9Im5vbmUiIGhlaWdodD0iNiIgc3R5bGU9InN0cm9rZTojQzgyOTMwO3N0cm9rZS13aWR0aDoxLjA7IiB3aWR0aD0iNiIgeD0iODA0IiB5PSIzNTkuNDkyMiIvPjx0ZXh0IGZpbGw9IiMwMDAwMDAiIGZvbnQtZmFtaWx5PSJzYW5zLXNlcmlmIiBmb250LXNpemU9IjE0IiBsZW5ndGhBZGp1c3Q9InNwYWNpbmciIHRleHRMZW5ndGg9IjcwIiB4PSI4MTYiIHk9IjM2Ni43MzQ0Ij5yb2xlOiBSb2xlPC90ZXh0PjxyZWN0IGZpbGw9Im5vbmUiIGhlaWdodD0iNiIgc3R5bGU9InN0cm9rZTojQzgyOTMwO3N0cm9rZS13aWR0aDoxLjA7IiB3aWR0aD0iNiIgeD0iODA0IiB5PSIzNzQuNDc2NiIvPjx0ZXh0IGZpbGw9IiMwMDAwMDAiIGZvbnQtZmFtaWx5PSJzYW5zLXNlcmlmIiBmb250LXNpemU9IjE0IiBsZW5ndGhBZGp1c3Q9InNwYWNpbmciIHRleHRMZW5ndGg9IjE4MiIgeD0iODE2IiB5PSIzODEuNzE4OCI+c3Vic2NyaXB0aW9uOiBTdWJzY3JpcHRpb248L3RleHQ+PGxpbmUgc3R5bGU9InN0cm9rZTojMTgxODE4O3N0cm9rZS13aWR0aDowLjU7IiB4MT0iNzk3IiB4Mj0iMTA0MCIgeTE9IjM4Ny40Njg4IiB5Mj0iMzg3LjQ2ODgiLz48ZWxsaXBzZSBjeD0iODA3IiBjeT0iNDAwLjQ2MDkiIGZpbGw9IiM4NEJFODQiIHJ4PSIzIiByeT0iMyIgc3R5bGU9InN0cm9rZTojMDM4MDQ4O3N0cm9rZS13aWR0aDoxLjA7Ii8+PHRleHQgZmlsbD0iIzAwMDAwMCIgZm9udC1mYW1pbHk9InNhbnMtc2VyaWYiIGZvbnQtc2l6ZT0iMTQiIGxlbmd0aEFkanVzdD0ic3BhY2luZyIgdGV4dExlbmd0aD0iMjE5IiB4PSI4MTYiIHk9IjQwNC43MDMxIj5nZXRTdWJzY3JpcHRpb24oKTogU3Vic2NyaXB0aW9uPC90ZXh0PjxlbGxpcHNlIGN4PSI4MDciIGN5PSI0MTUuNDQ1MyIgZmlsbD0iIzg0QkU4NCIgcng9IjMiIHJ5PSIzIiBzdHlsZT0ic3Ryb2tlOiMwMzgwNDg7c3Ryb2tlLXdpZHRoOjEuMDsiLz48dGV4dCBmaWxsPSIjMDAwMDAwIiBmb250LWZhbWlseT0ic2Fucy1zZXJpZiIgZm9udC1zaXplPSIxNCIgbGVuZ3RoQWRqdXN0PSJzcGFjaW5nIiB0ZXh0TGVuZ3RoPSIxMDciIHg9IjgxNiIgeT0iNDE5LjY4NzUiPmdldFJvbGUoKTogUm9sZTwvdGV4dD48L2c+PCEtLWNsYXNzIFN1YnNjcmlwdGlvbi0tPjxnIGlkPSJlbGVtX1N1YnNjcmlwdGlvbiI+PHJlY3QgY29kZUxpbmU9IjMwIiBmaWxsPSIjRjFGMUYxIiBoZWlnaHQ9IjE4Mi44NTk0IiBpZD0iU3Vic2NyaXB0aW9uIiByeD0iMi41IiByeT0iMi41IiBzdHlsZT0ic3Ryb2tlOiMxODE4MTg7c3Ryb2tlLXdpZHRoOjAuNTsiIHdpZHRoPSIzMDEiIHg9Ijk4MCIgeT0iNTIzIi8+PGVsbGlwc2UgY3g9IjEwODQuMjUiIGN5PSI1MzkiIGZpbGw9IiNBREQxQjIiIHJ4PSIxMSIgcnk9IjExIiBzdHlsZT0ic3Ryb2tlOiMxODE4MTg7c3Ryb2tlLXdpZHRoOjEuMDsiLz48cGF0aCBkPSJNMTA4MS44NzUsNTQzLjI1IEwxMDgxLjg3NSw1NDUgTDEwODYuODEyNSw1NDUgTDEwODYuODEyNSw1NDMuMjUgTDEwODEuODc1LDU0My4yNSBaIE0xMDgyLjU2MjUsNTQzLjkzNzUgUTEwODIuNTYyNSw1NDMuOTM3NSAxMDgyLjU2MjUsNTM0Ljc1IEwxMDgwLjgxMjUsNTM0Ljc1IFExMDgwLjgxMjUsNTM0Ljc1IDEwODAuODEyNSw1NDMuOTM3NSBMMTA4Mi41NjI1LDU0My45Mzc1IFogTTEwODYuMTI1LDU0My45Mzc1IEwxMDg3Ljg3NSw1NDMuOTM3NSBRMTA4Ny44NzUsNTQzLjkzNzUgMTA4Ny44NzUsNTQxLjEyNSBMMTA4Ni4xMjUsNTQxLjEyNSBRMTA4Ni4xMjUsNTQxLjEyNSAxMDg2LjEyNSw1NDMuOTM3NSBaIE0xMDg2LjEyNSw1MzQuNzUgUTEwODYuMTI1LDUzNC43NSAxMDg2LjEyNSw1MzcuNTYyNSBMMTA4Ny44NzUsNTM3LjU2MjUgUTEwODcuODc1LDUzNy41NjI1IDEwODcuODc1LDUzNC43NSBMMTA4Ni4xMjUsNTM0Ljc1IFogTTEwODEuODc1LDUzNS40Mzc1IEwxMDg2LjgxMjUsNTM1LjQzNzUgTDEwODYuODEyNSw1MzMuNjg3NSBMMTA4MS44NzUsNTMzLjY4NzUgTDEwODEuODc1LDUzNS40Mzc1IFogIiBmaWxsPSIjMDAwMDAwIi8+PHRleHQgZmlsbD0iIzAwMDAwMCIgZm9udC1mYW1pbHk9InNhbnMtc2VyaWYiIGZvbnQtc2l6ZT0iMTQiIGxlbmd0aEFkanVzdD0ic3BhY2luZyIgdGV4dExlbmd0aD0iODQiIHg9IjExMDQuNzUiIHk9IjU0NC43NDIyIj5TdWJzY3JpcHRpb248L3RleHQ+PGxpbmUgc3R5bGU9InN0cm9rZTojMTgxODE4O3N0cm9rZS13aWR0aDowLjU7IiB4MT0iOTgxIiB4Mj0iMTI4MCIgeTE9IjU1NSIgeTI9IjU1NSIvPjxyZWN0IGZpbGw9Im5vbmUiIGhlaWdodD0iNiIgc3R5bGU9InN0cm9rZTojQzgyOTMwO3N0cm9rZS13aWR0aDoxLjA7IiB3aWR0aD0iNiIgeD0iOTg4IiB5PSI1NjQuOTkyMiIvPjx0ZXh0IGZpbGw9IiMwMDAwMDAiIGZvbnQtZmFtaWx5PSJzYW5zLXNlcmlmIiBmb250LXNpemU9IjE0IiBsZW5ndGhBZGp1c3Q9InNwYWNpbmciIHRleHRMZW5ndGg9IjEzMyIgeD0iMTAwMCIgeT0iNTcyLjIzNDQiPnN1YnNjcmlwdGlvbklkOiBpbnQ8L3RleHQ+PHJlY3QgZmlsbD0ibm9uZSIgaGVpZ2h0PSI2IiBzdHlsZT0ic3Ryb2tlOiNDODI5MzA7c3Ryb2tlLXdpZHRoOjEuMDsiIHdpZHRoPSI2IiB4PSI5ODgiIHk9IjU3OS45NzY2Ii8+PHRleHQgZmlsbD0iIzAwMDAwMCIgZm9udC1mYW1pbHk9InNhbnMtc2VyaWYiIGZvbnQtc2l6ZT0iMTQiIGxlbmd0aEFkanVzdD0ic3BhY2luZyIgdGV4dExlbmd0aD0iMTU0IiB4PSIxMDAwIiB5PSI1ODcuMjE4OCI+dHlwZTogU3Vic2NyaXB0aW9uVHlwZTwvdGV4dD48cmVjdCBmaWxsPSJub25lIiBoZWlnaHQ9IjYiIHN0eWxlPSJzdHJva2U6I0M4MjkzMDtzdHJva2Utd2lkdGg6MS4wOyIgd2lkdGg9IjYiIHg9Ijk4OCIgeT0iNTk0Ljk2MDkiLz48dGV4dCBmaWxsPSIjMDAwMDAwIiBmb250LWZhbWlseT0ic2Fucy1zZXJpZiIgZm9udC1zaXplPSIxNCIgbGVuZ3RoQWRqdXN0PSJzcGFjaW5nIiB0ZXh0TGVuZ3RoPSIxMDUiIHg9IjEwMDAiIHk9IjYwMi4yMDMxIj5zdGFydERhdGU6IERhdGU8L3RleHQ+PHJlY3QgZmlsbD0ibm9uZSIgaGVpZ2h0PSI2IiBzdHlsZT0ic3Ryb2tlOiNDODI5MzA7c3Ryb2tlLXdpZHRoOjEuMDsiIHdpZHRoPSI2IiB4PSI5ODgiIHk9IjYwOS45NDUzIi8+PHRleHQgZmlsbD0iIzAwMDAwMCIgZm9udC1mYW1pbHk9InNhbnMtc2VyaWYiIGZvbnQtc2l6ZT0iMTQiIGxlbmd0aEFkanVzdD0ic3BhY2luZyIgdGV4dExlbmd0aD0iOTEiIHg9IjEwMDAiIHk9IjYxNy4xODc1Ij5lbmREYXRlOiBEYXRlPC90ZXh0PjxyZWN0IGZpbGw9Im5vbmUiIGhlaWdodD0iNiIgc3R5bGU9InN0cm9rZTojQzgyOTMwO3N0cm9rZS13aWR0aDoxLjA7IiB3aWR0aD0iNiIgeD0iOTg4IiB5PSI2MjQuOTI5NyIvPjx0ZXh0IGZpbGw9IiMwMDAwMDAiIGZvbnQtZmFtaWx5PSJzYW5zLXNlcmlmIiBmb250LXNpemU9IjE0IiBsZW5ndGhBZGp1c3Q9InNwYWNpbmciIHRleHRMZW5ndGg9IjExOSIgeD0iMTAwMCIgeT0iNjMyLjE3MTkiPmlzQWN0aXZlOiBib29sZWFuPC90ZXh0PjxsaW5lIHN0eWxlPSJzdHJva2U6IzE4MTgxODtzdHJva2Utd2lkdGg6MC41OyIgeDE9Ijk4MSIgeDI9IjEyODAiIHkxPSI2MzcuOTIxOSIgeTI9IjYzNy45MjE5Ii8+PGVsbGlwc2UgY3g9Ijk5MSIgY3k9IjY1MC45MTQxIiBmaWxsPSIjODRCRTg0IiByeD0iMyIgcnk9IjMiIHN0eWxlPSJzdHJva2U6IzAzODA0ODtzdHJva2Utd2lkdGg6MS4wOyIvPjx0ZXh0IGZpbGw9IiMwMDAwMDAiIGZvbnQtZmFtaWx5PSJzYW5zLXNlcmlmIiBmb250LXNpemU9IjE0IiBsZW5ndGhBZGp1c3Q9InNwYWNpbmciIHRleHRMZW5ndGg9IjI3NSIgeD0iMTAwMCIgeT0iNjU1LjE1NjMiPmdldFN1YnNjcmlwdGlvblR5cGUoKTogU3Vic2NyaXB0aW9uVHlwZTwvdGV4dD48ZWxsaXBzZSBjeD0iOTkxIiBjeT0iNjY1Ljg5ODQiIGZpbGw9IiM4NEJFODQiIHJ4PSIzIiByeT0iMyIgc3R5bGU9InN0cm9rZTojMDM4MDQ4O3N0cm9rZS13aWR0aDoxLjA7Ii8+PHRleHQgZmlsbD0iIzAwMDAwMCIgZm9udC1mYW1pbHk9InNhbnMtc2VyaWYiIGZvbnQtc2l6ZT0iMTQiIGxlbmd0aEFkanVzdD0ic3BhY2luZyIgdGV4dExlbmd0aD0iMTQyIiB4PSIxMDAwIiB5PSI2NzAuMTQwNiI+Z2V0U3RhcnREYXRlKCk6IERhdGU8L3RleHQ+PGVsbGlwc2UgY3g9Ijk5MSIgY3k9IjY4MC44ODI4IiBmaWxsPSIjODRCRTg0IiByeD0iMyIgcnk9IjMiIHN0eWxlPSJzdHJva2U6IzAzODA0ODtzdHJva2Utd2lkdGg6MS4wOyIvPjx0ZXh0IGZpbGw9IiMwMDAwMDAiIGZvbnQtZmFtaWx5PSJzYW5zLXNlcmlmIiBmb250LXNpemU9IjE0IiBsZW5ndGhBZGp1c3Q9InNwYWNpbmciIHRleHRMZW5ndGg9IjEyOCIgeD0iMTAwMCIgeT0iNjg1LjEyNSI+Z2V0RW5kRGF0ZSgpOiBEYXRlPC90ZXh0PjxlbGxpcHNlIGN4PSI5OTEiIGN5PSI2OTUuODY3MiIgZmlsbD0iIzg0QkU4NCIgcng9IjMiIHJ5PSIzIiBzdHlsZT0ic3Ryb2tlOiMwMzgwNDg7c3Ryb2tlLXdpZHRoOjEuMDsiLz48dGV4dCBmaWxsPSIjMDAwMDAwIiBmb250LWZhbWlseT0ic2Fucy1zZXJpZiIgZm9udC1zaXplPSIxNCIgbGVuZ3RoQWRqdXN0PSJzcGFjaW5nIiB0ZXh0TGVuZ3RoPSIxMzUiIHg9IjEwMDAiIHk9IjcwMC4xMDk0Ij5pc0FjdGl2ZSgpOiBib29sZWFuPC90ZXh0PjwvZz48IS0tY2xhc3MgVmlkZW8tLT48ZyBpZD0iZWxlbV9WaWRlbyI+PHJlY3QgY29kZUxpbmU9IjQyIiBmaWxsPSIjRjFGMUYxIiBoZWlnaHQ9IjIxMi44MjgxIiBpZD0iVmlkZW8iIHJ4PSIyLjUiIHJ5PSIyLjUiIHN0eWxlPSJzdHJva2U6IzE4MTgxODtzdHJva2Utd2lkdGg6MC41OyIgd2lkdGg9IjIyNCIgeD0iMjUuNSIgeT0iNyIvPjxlbGxpcHNlIGN4PSIxMTUuNzUiIGN5PSIyMyIgZmlsbD0iI0FERDFCMiIgcng9IjExIiByeT0iMTEiIHN0eWxlPSJzdHJva2U6IzE4MTgxODtzdHJva2Utd2lkdGg6MS4wOyIvPjxwYXRoIGQ9Ik0xMTMuMzc1LDI3LjI1IEwxMTMuMzc1LDI5IEwxMTguMzEyNSwyOSBMMTE4LjMxMjUsMjcuMjUgTDExMy4zNzUsMjcuMjUgWiBNMTE0LjA2MjUsMjcuOTM3NSBRMTE0LjA2MjUsMjcuOTM3NSAxMTQuMDYyNSwxOC43NSBMMTEyLjMxMjUsMTguNzUgUTExMi4zMTI1LDE4Ljc1IDExMi4zMTI1LDI3LjkzNzUgTDExNC4wNjI1LDI3LjkzNzUgWiBNMTE3LjYyNSwyNy45Mzc1IEwxMTkuMzc1LDI3LjkzNzUgUTExOS4zNzUsMjcuOTM3NSAxMTkuMzc1LDI1LjEyNSBMMTE3LjYyNSwyNS4xMjUgUTExNy42MjUsMjUuMTI1IDExNy42MjUsMjcuOTM3NSBaIE0xMTcuNjI1LDE4Ljc1IFExMTcuNjI1LDE4Ljc1IDExNy42MjUsMjEuNTYyNSBMMTE5LjM3NSwyMS41NjI1IFExMTkuMzc1LDIxLjU2MjUgMTE5LjM3NSwxOC43NSBMMTE3LjYyNSwxOC43NSBaIE0xMTMuMzc1LDE5LjQzNzUgTDExOC4zMTI1LDE5LjQzNzUgTDExOC4zMTI1LDE3LjY4NzUgTDExMy4zNzUsMTcuNjg3NSBMMTEzLjM3NSwxOS40Mzc1IFogIiBmaWxsPSIjMDAwMDAwIi8+PHRleHQgZmlsbD0iIzAwMDAwMCIgZm9udC1mYW1pbHk9InNhbnMtc2VyaWYiIGZvbnQtc2l6ZT0iMTQiIGxlbmd0aEFkanVzdD0ic3BhY2luZyIgdGV4dExlbmd0aD0iMzUiIHg9IjEzNi4yNSIgeT0iMjguNzQyMiI+VmlkZW88L3RleHQ+PGxpbmUgc3R5bGU9InN0cm9rZTojMTgxODE4O3N0cm9rZS13aWR0aDowLjU7IiB4MT0iMjYuNSIgeDI9IjI0OC41IiB5MT0iMzkiIHkyPSIzOSIvPjxyZWN0IGZpbGw9Im5vbmUiIGhlaWdodD0iNiIgc3R5bGU9InN0cm9rZTojQzgyOTMwO3N0cm9rZS13aWR0aDoxLjA7IiB3aWR0aD0iNiIgeD0iMzMuNSIgeT0iNDguOTkyMiIvPjx0ZXh0IGZpbGw9IiMwMDAwMDAiIGZvbnQtZmFtaWx5PSJzYW5zLXNlcmlmIiBmb250LXNpemU9IjE0IiBsZW5ndGhBZGp1c3Q9InNwYWNpbmciIHRleHRMZW5ndGg9Ijg0IiB4PSI0NS41IiB5PSI1Ni4yMzQ0Ij52aWRlb0lkOiBpbnQ8L3RleHQ+PHJlY3QgZmlsbD0ibm9uZSIgaGVpZ2h0PSI2IiBzdHlsZT0ic3Ryb2tlOiNDODI5MzA7c3Ryb2tlLXdpZHRoOjEuMDsiIHdpZHRoPSI2IiB4PSIzMy41IiB5PSI2My45NzY2Ii8+PHRleHQgZmlsbD0iIzAwMDAwMCIgZm9udC1mYW1pbHk9InNhbnMtc2VyaWYiIGZvbnQtc2l6ZT0iMTQiIGxlbmd0aEFkanVzdD0ic3BhY2luZyIgdGV4dExlbmd0aD0iOTEiIHg9IjQ1LjUiIHk9IjcxLjIxODgiPnRpdGxlOiBzdHJpbmc8L3RleHQ+PHJlY3QgZmlsbD0ibm9uZSIgaGVpZ2h0PSI2IiBzdHlsZT0ic3Ryb2tlOiNDODI5MzA7c3Ryb2tlLXdpZHRoOjEuMDsiIHdpZHRoPSI2IiB4PSIzMy41IiB5PSI3OC45NjA5Ii8+PHRleHQgZmlsbD0iIzAwMDAwMCIgZm9udC1mYW1pbHk9InNhbnMtc2VyaWYiIGZvbnQtc2l6ZT0iMTQiIGxlbmd0aEFkanVzdD0ic3BhY2luZyIgdGV4dExlbmd0aD0iMTMzIiB4PSI0NS41IiB5PSI4Ni4yMDMxIj5kZXNjcmlwdGlvbjogc3RyaW5nPC90ZXh0PjxyZWN0IGZpbGw9Im5vbmUiIGhlaWdodD0iNiIgc3R5bGU9InN0cm9rZTojQzgyOTMwO3N0cm9rZS13aWR0aDoxLjA7IiB3aWR0aD0iNiIgeD0iMzMuNSIgeT0iOTMuOTQ1MyIvPjx0ZXh0IGZpbGw9IiMwMDAwMDAiIGZvbnQtZmFtaWx5PSJzYW5zLXNlcmlmIiBmb250LXNpemU9IjE0IiBsZW5ndGhBZGp1c3Q9InNwYWNpbmciIHRleHRMZW5ndGg9Ijc3IiB4PSI0NS41IiB5PSIxMDEuMTg3NSI+dXJsOiBzdHJpbmc8L3RleHQ+PHJlY3QgZmlsbD0ibm9uZSIgaGVpZ2h0PSI2IiBzdHlsZT0ic3Ryb2tlOiNDODI5MzA7c3Ryb2tlLXdpZHRoOjEuMDsiIHdpZHRoPSI2IiB4PSIzMy41IiB5PSIxMDguOTI5NyIvPjx0ZXh0IGZpbGw9IiMwMDAwMDAiIGZvbnQtZmFtaWx5PSJzYW5zLXNlcmlmIiBmb250LXNpemU9IjE0IiBsZW5ndGhBZGp1c3Q9InNwYWNpbmciIHRleHRMZW5ndGg9IjExMiIgeD0iNDUuNSIgeT0iMTE2LjE3MTkiPnVwbG9hZGVkQnk6IFVzZXI8L3RleHQ+PHJlY3QgZmlsbD0ibm9uZSIgaGVpZ2h0PSI2IiBzdHlsZT0ic3Ryb2tlOiNDODI5MzA7c3Ryb2tlLXdpZHRoOjEuMDsiIHdpZHRoPSI2IiB4PSIzMy41IiB5PSIxMjMuOTE0MSIvPjx0ZXh0IGZpbGw9IiMwMDAwMDAiIGZvbnQtZmFtaWx5PSJzYW5zLXNlcmlmIiBmb250LXNpemU9IjE0IiBsZW5ndGhBZGp1c3Q9InNwYWNpbmciIHRleHRMZW5ndGg9IjE2MSIgeD0iNDUuNSIgeT0iMTMxLjE1NjMiPmNhdGVnb3J5OiBWaWRlb0NhdGVnb3J5PC90ZXh0PjxsaW5lIHN0eWxlPSJzdHJva2U6IzE4MTgxODtzdHJva2Utd2lkdGg6MC41OyIgeDE9IjI2LjUiIHgyPSIyNDguNSIgeTE9IjEzNi45MDYzIiB5Mj0iMTM2LjkwNjMiLz48ZWxsaXBzZSBjeD0iMzYuNSIgY3k9IjE0OS44OTg0IiBmaWxsPSIjODRCRTg0IiByeD0iMyIgcnk9IjMiIHN0eWxlPSJzdHJva2U6IzAzODA0ODtzdHJva2Utd2lkdGg6MS4wOyIvPjx0ZXh0IGZpbGw9IiMwMDAwMDAiIGZvbnQtZmFtaWx5PSJzYW5zLXNlcmlmIiBmb250LXNpemU9IjE0IiBsZW5ndGhBZGp1c3Q9InNwYWNpbmciIHRleHRMZW5ndGg9IjEyOCIgeD0iNDUuNSIgeT0iMTU0LjE0MDYiPmdldFRpdGxlKCk6IHN0cmluZzwvdGV4dD48ZWxsaXBzZSBjeD0iMzYuNSIgY3k9IjE2NC44ODI4IiBmaWxsPSIjODRCRTg0IiByeD0iMyIgcnk9IjMiIHN0eWxlPSJzdHJva2U6IzAzODA0ODtzdHJva2Utd2lkdGg6MS4wOyIvPjx0ZXh0IGZpbGw9IiMwMDAwMDAiIGZvbnQtZmFtaWx5PSJzYW5zLXNlcmlmIiBmb250LXNpemU9IjE0IiBsZW5ndGhBZGp1c3Q9InNwYWNpbmciIHRleHRMZW5ndGg9IjE3MCIgeD0iNDUuNSIgeT0iMTY5LjEyNSI+Z2V0RGVzY3JpcHRpb24oKTogc3RyaW5nPC90ZXh0PjxlbGxpcHNlIGN4PSIzNi41IiBjeT0iMTc5Ljg2NzIiIGZpbGw9IiM4NEJFODQiIHJ4PSIzIiByeT0iMyIgc3R5bGU9InN0cm9rZTojMDM4MDQ4O3N0cm9rZS13aWR0aDoxLjA7Ii8+PHRleHQgZmlsbD0iIzAwMDAwMCIgZm9udC1mYW1pbHk9InNhbnMtc2VyaWYiIGZvbnQtc2l6ZT0iMTQiIGxlbmd0aEFkanVzdD0ic3BhY2luZyIgdGV4dExlbmd0aD0iMTE0IiB4PSI0NS41IiB5PSIxODQuMTA5NCI+Z2V0VVJMKCk6IHN0cmluZzwvdGV4dD48ZWxsaXBzZSBjeD0iMzYuNSIgY3k9IjE5NC44NTE2IiBmaWxsPSIjODRCRTg0IiByeD0iMyIgcnk9IjMiIHN0eWxlPSJzdHJva2U6IzAzODA0ODtzdHJva2Utd2lkdGg6MS4wOyIvPjx0ZXh0IGZpbGw9IiMwMDAwMDAiIGZvbnQtZmFtaWx5PSJzYW5zLXNlcmlmIiBmb250LXNpemU9IjE0IiBsZW5ndGhBZGp1c3Q9InNwYWNpbmciIHRleHRMZW5ndGg9IjE0OSIgeD0iNDUuNSIgeT0iMTk5LjA5MzgiPmdldFVwbG9hZGVkQnkoKTogVXNlcjwvdGV4dD48ZWxsaXBzZSBjeD0iMzYuNSIgY3k9IjIwOS44MzU5IiBmaWxsPSIjODRCRTg0IiByeD0iMyIgcnk9IjMiIHN0eWxlPSJzdHJva2U6IzAzODA0ODtzdHJva2Utd2lkdGg6MS4wOyIvPjx0ZXh0IGZpbGw9IiMwMDAwMDAiIGZvbnQtZmFtaWx5PSJzYW5zLXNlcmlmIiBmb250LXNpemU9IjE0IiBsZW5ndGhBZGp1c3Q9InNwYWNpbmciIHRleHRMZW5ndGg9IjE5OCIgeD0iNDUuNSIgeT0iMjE0LjA3ODEiPmdldENhdGVnb3J5KCk6IFZpZGVvQ2F0ZWdvcnk8L3RleHQ+PC9nPjwhLS1jbGFzcyBWaWRlb0NhdGVnb3J5LS0+PGcgaWQ9ImVsZW1fVmlkZW9DYXRlZ29yeSI+PHJlY3QgY29kZUxpbmU9IjU2IiBmaWxsPSIjRjFGMUYxIiBoZWlnaHQ9IjkyLjk1MzEiIGlkPSJWaWRlb0NhdGVnb3J5IiByeD0iMi41IiByeT0iMi41IiBzdHlsZT0ic3Ryb2tlOiMxODE4MTg7c3Ryb2tlLXdpZHRoOjAuNTsiIHdpZHRoPSIxNDgiIHg9IjI4NC41IiB5PSI2NyIvPjxlbGxpcHNlIGN4PSIzMTAuNzUiIGN5PSI4MyIgZmlsbD0iI0FERDFCMiIgcng9IjExIiByeT0iMTEiIHN0eWxlPSJzdHJva2U6IzE4MTgxODtzdHJva2Utd2lkdGg6MS4wOyIvPjxwYXRoIGQ9Ik0zMDguMzc1LDg3LjI1IEwzMDguMzc1LDg5IEwzMTMuMzEyNSw4OSBMMzEzLjMxMjUsODcuMjUgTDMwOC4zNzUsODcuMjUgWiBNMzA5LjA2MjUsODcuOTM3NSBRMzA5LjA2MjUsODcuOTM3NSAzMDkuMDYyNSw3OC43NSBMMzA3LjMxMjUsNzguNzUgUTMwNy4zMTI1LDc4Ljc1IDMwNy4zMTI1LDg3LjkzNzUgTDMwOS4wNjI1LDg3LjkzNzUgWiBNMzEyLjYyNSw4Ny45Mzc1IEwzMTQuMzc1LDg3LjkzNzUgUTMxNC4zNzUsODcuOTM3NSAzMTQuMzc1LDg1LjEyNSBMMzEyLjYyNSw4NS4xMjUgUTMxMi42MjUsODUuMTI1IDMxMi42MjUsODcuOTM3NSBaIE0zMTIuNjI1LDc4Ljc1IFEzMTIuNjI1LDc4Ljc1IDMxMi42MjUsODEuNTYyNSBMMzE0LjM3NSw4MS41NjI1IFEzMTQuMzc1LDgxLjU2MjUgMzE0LjM3NSw3OC43NSBMMzEyLjYyNSw3OC43NSBaIE0zMDguMzc1LDc5LjQzNzUgTDMxMy4zMTI1LDc5LjQzNzUgTDMxMy4zMTI1LDc3LjY4NzUgTDMwOC4zNzUsNzcuNjg3NSBMMzA4LjM3NSw3OS40Mzc1IFogIiBmaWxsPSIjMDAwMDAwIi8+PHRleHQgZmlsbD0iIzAwMDAwMCIgZm9udC1mYW1pbHk9InNhbnMtc2VyaWYiIGZvbnQtc2l6ZT0iMTQiIGxlbmd0aEFkanVzdD0ic3BhY2luZyIgdGV4dExlbmd0aD0iOTEiIHg9IjMyNy4yNSIgeT0iODguNzQyMiI+VmlkZW9DYXRlZ29yeTwvdGV4dD48bGluZSBzdHlsZT0ic3Ryb2tlOiMxODE4MTg7c3Ryb2tlLXdpZHRoOjAuNTsiIHgxPSIyODUuNSIgeDI9IjQzMS41IiB5MT0iOTkiIHkyPSI5OSIvPjxyZWN0IGZpbGw9Im5vbmUiIGhlaWdodD0iNiIgc3R5bGU9InN0cm9rZTojQzgyOTMwO3N0cm9rZS13aWR0aDoxLjA7IiB3aWR0aD0iNiIgeD0iMjkyLjUiIHk9IjEwOC45OTIyIi8+PHRleHQgZmlsbD0iIzAwMDAwMCIgZm9udC1mYW1pbHk9InNhbnMtc2VyaWYiIGZvbnQtc2l6ZT0iMTQiIGxlbmd0aEFkanVzdD0ic3BhY2luZyIgdGV4dExlbmd0aD0iMTA1IiB4PSIzMDQuNSIgeT0iMTE2LjIzNDQiPmNhdGVnb3J5SWQ6IGludDwvdGV4dD48cmVjdCBmaWxsPSJub25lIiBoZWlnaHQ9IjYiIHN0eWxlPSJzdHJva2U6I0M4MjkzMDtzdHJva2Utd2lkdGg6MS4wOyIgd2lkdGg9IjYiIHg9IjI5Mi41IiB5PSIxMjMuOTc2NiIvPjx0ZXh0IGZpbGw9IiMwMDAwMDAiIGZvbnQtZmFtaWx5PSJzYW5zLXNlcmlmIiBmb250LXNpemU9IjE0IiBsZW5ndGhBZGp1c3Q9InNwYWNpbmciIHRleHRMZW5ndGg9Ijg1IiB4PSIzMDQuNSIgeT0iMTMxLjIxODgiPm5hbWU6IHN0cmluZzwvdGV4dD48bGluZSBzdHlsZT0ic3Ryb2tlOiMxODE4MTg7c3Ryb2tlLXdpZHRoOjAuNTsiIHgxPSIyODUuNSIgeDI9IjQzMS41IiB5MT0iMTM2Ljk2ODgiIHkyPSIxMzYuOTY4OCIvPjxlbGxpcHNlIGN4PSIyOTUuNSIgY3k9IjE0OS45NjA5IiBmaWxsPSIjODRCRTg0IiByeD0iMyIgcnk9IjMiIHN0eWxlPSJzdHJva2U6IzAzODA0ODtzdHJva2Utd2lkdGg6MS4wOyIvPjx0ZXh0IGZpbGw9IiMwMDAwMDAiIGZvbnQtZmFtaWx5PSJzYW5zLXNlcmlmIiBmb250LXNpemU9IjE0IiBsZW5ndGhBZGp1c3Q9InNwYWNpbmciIHRleHRMZW5ndGg9IjEyMiIgeD0iMzA0LjUiIHk9IjE1NC4yMDMxIj5nZXROYW1lKCk6IHN0cmluZzwvdGV4dD48L2c+PCEtLWNsYXNzIFBheW1lbnQtLT48ZyBpZD0iZWxlbV9QYXltZW50Ij48cmVjdCBjb2RlTGluZT0iNjIiIGZpbGw9IiNGMUYxRjEiIGhlaWdodD0iMTgyLjg1OTQiIGlkPSJQYXltZW50IiByeD0iMi41IiByeT0iMi41IiBzdHlsZT0ic3Ryb2tlOiMxODE4MTg7c3Ryb2tlLXdpZHRoOjAuNTsiIHdpZHRoPSIyNjEiIHg9IjciIHk9IjI4MCIvPjxlbGxpcHNlIGN4PSIxMDguMjUiIGN5PSIyOTYiIGZpbGw9IiNBREQxQjIiIHJ4PSIxMSIgcnk9IjExIiBzdHlsZT0ic3Ryb2tlOiMxODE4MTg7c3Ryb2tlLXdpZHRoOjEuMDsiLz48cGF0aCBkPSJNMTA1Ljg3NSwzMDAuMjUgTDEwNS44NzUsMzAyIEwxMTAuODEyNSwzMDIgTDExMC44MTI1LDMwMC4yNSBMMTA1Ljg3NSwzMDAuMjUgWiBNMTA2LjU2MjUsMzAwLjkzNzUgUTEwNi41NjI1LDMwMC45Mzc1IDEwNi41NjI1LDI5MS43NSBMMTA0LjgxMjUsMjkxLjc1IFExMDQuODEyNSwyOTEuNzUgMTA0LjgxMjUsMzAwLjkzNzUgTDEwNi41NjI1LDMwMC45Mzc1IFogTTExMC4xMjUsMzAwLjkzNzUgTDExMS44NzUsMzAwLjkzNzUgUTExMS44NzUsMzAwLjkzNzUgMTExLjg3NSwyOTguMTI1IEwxMTAuMTI1LDI5OC4xMjUgUTExMC4xMjUsMjk4LjEyNSAxMTAuMTI1LDMwMC45Mzc1IFogTTExMC4xMjUsMjkxLjc1IFExMTAuMTI1LDI5MS43NSAxMTAuMTI1LDI5NC41NjI1IEwxMTEuODc1LDI5NC41NjI1IFExMTEuODc1LDI5NC41NjI1IDExMS44NzUsMjkxLjc1IEwxMTAuMTI1LDI5MS43NSBaIE0xMDUuODc1LDI5Mi40Mzc1IEwxMTAuODEyNSwyOTIuNDM3NSBMMTEwLjgxMjUsMjkwLjY4NzUgTDEwNS44NzUsMjkwLjY4NzUgTDEwNS44NzUsMjkyLjQzNzUgWiAiIGZpbGw9IiMwMDAwMDAiLz48dGV4dCBmaWxsPSIjMDAwMDAwIiBmb250LWZhbWlseT0ic2Fucy1zZXJpZiIgZm9udC1zaXplPSIxNCIgbGVuZ3RoQWRqdXN0PSJzcGFjaW5nIiB0ZXh0TGVuZ3RoPSI1MCIgeD0iMTI4Ljc1IiB5PSIzMDEuNzQyMiI+UGF5bWVudDwvdGV4dD48bGluZSBzdHlsZT0ic3Ryb2tlOiMxODE4MTg7c3Ryb2tlLXdpZHRoOjAuNTsiIHgxPSI4IiB4Mj0iMjY3IiB5MT0iMzEyIiB5Mj0iMzEyIi8+PHJlY3QgZmlsbD0ibm9uZSIgaGVpZ2h0PSI2IiBzdHlsZT0ic3Ryb2tlOiNDODI5MzA7c3Ryb2tlLXdpZHRoOjEuMDsiIHdpZHRoPSI2IiB4PSIxNSIgeT0iMzIxLjk5MjIiLz48dGV4dCBmaWxsPSIjMDAwMDAwIiBmb250LWZhbWlseT0ic2Fucy1zZXJpZiIgZm9udC1zaXplPSIxNCIgbGVuZ3RoQWRqdXN0PSJzcGFjaW5nIiB0ZXh0TGVuZ3RoPSI5OSIgeD0iMjciIHk9IjMyOS4yMzQ0Ij5wYXltZW50SWQ6IGludDwvdGV4dD48cmVjdCBmaWxsPSJub25lIiBoZWlnaHQ9IjYiIHN0eWxlPSJzdHJva2U6I0M4MjkzMDtzdHJva2Utd2lkdGg6MS4wOyIgd2lkdGg9IjYiIHg9IjE1IiB5PSIzMzYuOTc2NiIvPjx0ZXh0IGZpbGw9IiMwMDAwMDAiIGZvbnQtZmFtaWx5PSJzYW5zLXNlcmlmIiBmb250LXNpemU9IjE0IiBsZW5ndGhBZGp1c3Q9InNwYWNpbmciIHRleHRMZW5ndGg9IjcwIiB4PSIyNyIgeT0iMzQ0LjIxODgiPnVzZXI6IFVzZXI8L3RleHQ+PHJlY3QgZmlsbD0ibm9uZSIgaGVpZ2h0PSI2IiBzdHlsZT0ic3Ryb2tlOiNDODI5MzA7c3Ryb2tlLXdpZHRoOjEuMDsiIHdpZHRoPSI2IiB4PSIxNSIgeT0iMzUxLjk2MDkiLz48dGV4dCBmaWxsPSIjMDAwMDAwIiBmb250LWZhbWlseT0ic2Fucy1zZXJpZiIgZm9udC1zaXplPSIxNCIgbGVuZ3RoQWRqdXN0PSJzcGFjaW5nIiB0ZXh0TGVuZ3RoPSI5OSIgeD0iMjciIHk9IjM1OS4yMDMxIj5hbW91bnQ6IGRvdWJsZTwvdGV4dD48cmVjdCBmaWxsPSJub25lIiBoZWlnaHQ9IjYiIHN0eWxlPSJzdHJva2U6I0M4MjkzMDtzdHJva2Utd2lkdGg6MS4wOyIgd2lkdGg9IjYiIHg9IjE1IiB5PSIzNjYuOTQ1MyIvPjx0ZXh0IGZpbGw9IiMwMDAwMDAiIGZvbnQtZmFtaWx5PSJzYW5zLXNlcmlmIiBmb250LXNpemU9IjE0IiBsZW5ndGhBZGp1c3Q9InNwYWNpbmciIHRleHRMZW5ndGg9IjEyMCIgeD0iMjciIHk9IjM3NC4xODc1Ij5wYXltZW50RGF0ZTogRGF0ZTwvdGV4dD48cmVjdCBmaWxsPSJub25lIiBoZWlnaHQ9IjYiIHN0eWxlPSJzdHJva2U6I0M4MjkzMDtzdHJva2Utd2lkdGg6MS4wOyIgd2lkdGg9IjYiIHg9IjE1IiB5PSIzODEuOTI5NyIvPjx0ZXh0IGZpbGw9IiMwMDAwMDAiIGZvbnQtZmFtaWx5PSJzYW5zLXNlcmlmIiBmb250LXNpemU9IjE0IiBsZW5ndGhBZGp1c3Q9InNwYWNpbmciIHRleHRMZW5ndGg9IjE5OCIgeD0iMjciIHk9IjM4OS4xNzE5Ij5wYXltZW50U3RhdHVzOiBQYXltZW50U3RhdHVzPC90ZXh0PjxsaW5lIHN0eWxlPSJzdHJva2U6IzE4MTgxODtzdHJva2Utd2lkdGg6MC41OyIgeDE9IjgiIHgyPSIyNjciIHkxPSIzOTQuOTIxOSIgeTI9IjM5NC45MjE5Ii8+PGVsbGlwc2UgY3g9IjE4IiBjeT0iNDA3LjkxNDEiIGZpbGw9IiM4NEJFODQiIHJ4PSIzIiByeT0iMyIgc3R5bGU9InN0cm9rZTojMDM4MDQ4O3N0cm9rZS13aWR0aDoxLjA7Ii8+PHRleHQgZmlsbD0iIzAwMDAwMCIgZm9udC1mYW1pbHk9InNhbnMtc2VyaWYiIGZvbnQtc2l6ZT0iMTQiIGxlbmd0aEFkanVzdD0ic3BhY2luZyIgdGV4dExlbmd0aD0iMTA3IiB4PSIyNyIgeT0iNDEyLjE1NjMiPmdldFVzZXIoKTogVXNlcjwvdGV4dD48ZWxsaXBzZSBjeD0iMTgiIGN5PSI0MjIuODk4NCIgZmlsbD0iIzg0QkU4NCIgcng9IjMiIHJ5PSIzIiBzdHlsZT0ic3Ryb2tlOiMwMzgwNDg7c3Ryb2tlLXdpZHRoOjEuMDsiLz48dGV4dCBmaWxsPSIjMDAwMDAwIiBmb250LWZhbWlseT0ic2Fucy1zZXJpZiIgZm9udC1zaXplPSIxNCIgbGVuZ3RoQWRqdXN0PSJzcGFjaW5nIiB0ZXh0TGVuZ3RoPSIxMzYiIHg9IjI3IiB5PSI0MjcuMTQwNiI+Z2V0QW1vdW50KCk6IGRvdWJsZTwvdGV4dD48ZWxsaXBzZSBjeD0iMTgiIGN5PSI0MzcuODgyOCIgZmlsbD0iIzg0QkU4NCIgcng9IjMiIHJ5PSIzIiBzdHlsZT0ic3Ryb2tlOiMwMzgwNDg7c3Ryb2tlLXdpZHRoOjEuMDsiLz48dGV4dCBmaWxsPSIjMDAwMDAwIiBmb250LWZhbWlseT0ic2Fucy1zZXJpZiIgZm9udC1zaXplPSIxNCIgbGVuZ3RoQWRqdXN0PSJzcGFjaW5nIiB0ZXh0TGVuZ3RoPSIxNTciIHg9IjI3IiB5PSI0NDIuMTI1Ij5nZXRQYXltZW50RGF0ZSgpOiBEYXRlPC90ZXh0PjxlbGxpcHNlIGN4PSIxOCIgY3k9IjQ1Mi44NjcyIiBmaWxsPSIjODRCRTg0IiByeD0iMyIgcnk9IjMiIHN0eWxlPSJzdHJva2U6IzAzODA0ODtzdHJva2Utd2lkdGg6MS4wOyIvPjx0ZXh0IGZpbGw9IiMwMDAwMDAiIGZvbnQtZmFtaWx5PSJzYW5zLXNlcmlmIiBmb250LXNpemU9IjE0IiBsZW5ndGhBZGp1c3Q9InNwYWNpbmciIHRleHRMZW5ndGg9IjIzNSIgeD0iMjciIHk9IjQ1Ny4xMDk0Ij5nZXRQYXltZW50U3RhdHVzKCk6IFBheW1lbnRTdGF0dXM8L3RleHQ+PC9nPjwhLS1jbGFzcyBGcm9udERlc2tTdGFmZi0tPjxnIGlkPSJlbGVtX0Zyb250RGVza1N0YWZmIj48cmVjdCBjb2RlTGluZT0iNzQiIGZpbGw9IiNGMUYxRjEiIGhlaWdodD0iMTIyLjkyMTkiIGlkPSJGcm9udERlc2tTdGFmZiIgcng9IjIuNSIgcnk9IjIuNSIgc3R5bGU9InN0cm9rZTojMTgxODE4O3N0cm9rZS13aWR0aDowLjU7IiB3aWR0aD0iMTc2IiB4PSIzMDMuNSIgeT0iMzEwIi8+PGVsbGlwc2UgY3g9IjMzOS4yIiBjeT0iMzI2IiBmaWxsPSIjQUREMUIyIiByeD0iMTEiIHJ5PSIxMSIgc3R5bGU9InN0cm9rZTojMTgxODE4O3N0cm9rZS13aWR0aDoxLjA7Ii8+PHBhdGggZD0iTTMzNi44MjUsMzMwLjI1IEwzMzYuODI1LDMzMiBMMzQxLjc2MjUsMzMyIEwzNDEuNzYyNSwzMzAuMjUgTDMzNi44MjUsMzMwLjI1IFogTTMzNy41MTI1LDMzMC45Mzc1IFEzMzcuNTEyNSwzMzAuOTM3NSAzMzcuNTEyNSwzMjEuNzUgTDMzNS43NjI1LDMyMS43NSBRMzM1Ljc2MjUsMzIxLjc1IDMzNS43NjI1LDMzMC45Mzc1IEwzMzcuNTEyNSwzMzAuOTM3NSBaIE0zNDEuMDc1LDMzMC45Mzc1IEwzNDIuODI1LDMzMC45Mzc1IFEzNDIuODI1LDMzMC45Mzc1IDM0Mi44MjUsMzI4LjEyNSBMMzQxLjA3NSwzMjguMTI1IFEzNDEuMDc1LDMyOC4xMjUgMzQxLjA3NSwzMzAuOTM3NSBaIE0zNDEuMDc1LDMyMS43NSBRMzQxLjA3NSwzMjEuNzUgMzQxLjA3NSwzMjQuNTYyNSBMMzQyLjgyNSwzMjQuNTYyNSBRMzQyLjgyNSwzMjQuNTYyNSAzNDIuODI1LDMyMS43NSBMMzQxLjA3NSwzMjEuNzUgWiBNMzM2LjgyNSwzMjIuNDM3NSBMMzQxLjc2MjUsMzIyLjQzNzUgTDM0MS43NjI1LDMyMC42ODc1IEwzMzYuODI1LDMyMC42ODc1IEwzMzYuODI1LDMyMi40Mzc1IFogIiBmaWxsPSIjMDAwMDAwIi8+PHRleHQgZmlsbD0iIzAwMDAwMCIgZm9udC1mYW1pbHk9InNhbnMtc2VyaWYiIGZvbnQtc2l6ZT0iMTQiIGxlbmd0aEFkanVzdD0ic3BhY2luZyIgdGV4dExlbmd0aD0iOTgiIHg9IjM1Ny44IiB5PSIzMzEuNzQyMiI+RnJvbnREZXNrU3RhZmY8L3RleHQ+PGxpbmUgc3R5bGU9InN0cm9rZTojMTgxODE4O3N0cm9rZS13aWR0aDowLjU7IiB4MT0iMzA0LjUiIHgyPSI0NzguNSIgeTE9IjM0MiIgeTI9IjM0MiIvPjxyZWN0IGZpbGw9Im5vbmUiIGhlaWdodD0iNiIgc3R5bGU9InN0cm9rZTojQzgyOTMwO3N0cm9rZS13aWR0aDoxLjA7IiB3aWR0aD0iNiIgeD0iMzExLjUiIHk9IjM1MS45OTIyIi8+PHRleHQgZmlsbD0iIzAwMDAwMCIgZm9udC1mYW1pbHk9InNhbnMtc2VyaWYiIGZvbnQtc2l6ZT0iMTQiIGxlbmd0aEFkanVzdD0ic3BhY2luZyIgdGV4dExlbmd0aD0iODQiIHg9IjMyMy41IiB5PSIzNTkuMjM0NCI+c3RhZmZJZDogaW50PC90ZXh0PjxyZWN0IGZpbGw9Im5vbmUiIGhlaWdodD0iNiIgc3R5bGU9InN0cm9rZTojQzgyOTMwO3N0cm9rZS13aWR0aDoxLjA7IiB3aWR0aD0iNiIgeD0iMzExLjUiIHk9IjM2Ni45NzY2Ii8+PHRleHQgZmlsbD0iIzAwMDAwMCIgZm9udC1mYW1pbHk9InNhbnMtc2VyaWYiIGZvbnQtc2l6ZT0iMTQiIGxlbmd0aEFkanVzdD0ic3BhY2luZyIgdGV4dExlbmd0aD0iMTEzIiB4PSIzMjMuNSIgeT0iMzc0LjIxODgiPmZ1bGxOYW1lOiBzdHJpbmc8L3RleHQ+PHJlY3QgZmlsbD0ibm9uZSIgaGVpZ2h0PSI2IiBzdHlsZT0ic3Ryb2tlOiNDODI5MzA7c3Ryb2tlLXdpZHRoOjEuMDsiIHdpZHRoPSI2IiB4PSIzMTEuNSIgeT0iMzgxLjk2MDkiLz48dGV4dCBmaWxsPSIjMDAwMDAwIiBmb250LWZhbWlseT0ic2Fucy1zZXJpZiIgZm9udC1zaXplPSIxNCIgbGVuZ3RoQWRqdXN0PSJzcGFjaW5nIiB0ZXh0TGVuZ3RoPSI5MiIgeD0iMzIzLjUiIHk9IjM4OS4yMDMxIj5lbWFpbDogc3RyaW5nPC90ZXh0PjxsaW5lIHN0eWxlPSJzdHJva2U6IzE4MTgxODtzdHJva2Utd2lkdGg6MC41OyIgeDE9IjMwNC41IiB4Mj0iNDc4LjUiIHkxPSIzOTQuOTUzMSIgeTI9IjM5NC45NTMxIi8+PGVsbGlwc2UgY3g9IjMxNC41IiBjeT0iNDA3Ljk0NTMiIGZpbGw9IiM4NEJFODQiIHJ4PSIzIiByeT0iMyIgc3R5bGU9InN0cm9rZTojMDM4MDQ4O3N0cm9rZS13aWR0aDoxLjA7Ii8+PHRleHQgZmlsbD0iIzAwMDAwMCIgZm9udC1mYW1pbHk9InNhbnMtc2VyaWYiIGZvbnQtc2l6ZT0iMTQiIGxlbmd0aEFkanVzdD0ic3BhY2luZyIgdGV4dExlbmd0aD0iMTUwIiB4PSIzMjMuNSIgeT0iNDEyLjE4NzUiPmdldEZ1bGxOYW1lKCk6IHN0cmluZzwvdGV4dD48ZWxsaXBzZSBjeD0iMzE0LjUiIGN5PSI0MjIuOTI5NyIgZmlsbD0iIzg0QkU4NCIgcng9IjMiIHJ5PSIzIiBzdHlsZT0ic3Ryb2tlOiMwMzgwNDg7c3Ryb2tlLXdpZHRoOjEuMDsiLz48dGV4dCBmaWxsPSIjMDAwMDAwIiBmb250LWZhbWlseT0ic2Fucy1zZXJpZiIgZm9udC1zaXplPSIxNCIgbGVuZ3RoQWRqdXN0PSJzcGFjaW5nIiB0ZXh0TGVuZ3RoPSIxMjkiIHg9IjMyMy41IiB5PSI0MjcuMTcxOSI+Z2V0RW1haWwoKTogc3RyaW5nPC90ZXh0PjwvZz48IS0tY2xhc3MgRGVwYXJ0bWVudC0tPjxnIGlkPSJlbGVtX0RlcGFydG1lbnQiPjxyZWN0IGNvZGVMaW5lPSI4MiIgZmlsbD0iI0YxRjFGMSIgaGVpZ2h0PSI5Mi45NTMxIiBpZD0iRGVwYXJ0bWVudCIgcng9IjIuNSIgcnk9IjIuNSIgc3R5bGU9InN0cm9rZTojMTgxODE4O3N0cm9rZS13aWR0aDowLjU7IiB3aWR0aD0iMTQ4IiB4PSIxNDQ5LjUiIHk9IjMyNSIvPjxlbGxpcHNlIGN4PSIxNDg0Ljc1IiBjeT0iMzQxIiBmaWxsPSIjQUREMUIyIiByeD0iMTEiIHJ5PSIxMSIgc3R5bGU9InN0cm9rZTojMTgxODE4O3N0cm9rZS13aWR0aDoxLjA7Ii8+PHBhdGggZD0iTTE0ODIuMzc1LDM0NS4yNSBMMTQ4Mi4zNzUsMzQ3IEwxNDg3LjMxMjUsMzQ3IEwxNDg3LjMxMjUsMzQ1LjI1IEwxNDgyLjM3NSwzNDUuMjUgWiBNMTQ4My4wNjI1LDM0NS45Mzc1IFExNDgzLjA2MjUsMzQ1LjkzNzUgMTQ4My4wNjI1LDMzNi43NSBMMTQ4MS4zMTI1LDMzNi43NSBRMTQ4MS4zMTI1LDMzNi43NSAxNDgxLjMxMjUsMzQ1LjkzNzUgTDE0ODMuMDYyNSwzNDUuOTM3NSBaIE0xNDg2LjYyNSwzNDUuOTM3NSBMMTQ4OC4zNzUsMzQ1LjkzNzUgUTE0ODguMzc1LDM0NS45Mzc1IDE0ODguMzc1LDM0My4xMjUgTDE0ODYuNjI1LDM0My4xMjUgUTE0ODYuNjI1LDM0My4xMjUgMTQ4Ni42MjUsMzQ1LjkzNzUgWiBNMTQ4Ni42MjUsMzM2Ljc1IFExNDg2LjYyNSwzMzYuNzUgMTQ4Ni42MjUsMzM5LjU2MjUgTDE0ODguMzc1LDMzOS41NjI1IFExNDg4LjM3NSwzMzkuNTYyNSAxNDg4LjM3NSwzMzYuNzUgTDE0ODYuNjI1LDMzNi43NSBaIE0xNDgyLjM3NSwzMzcuNDM3NSBMMTQ4Ny4zMTI1LDMzNy40Mzc1IEwxNDg3LjMxMjUsMzM1LjY4NzUgTDE0ODIuMzc1LDMzNS42ODc1IEwxNDgyLjM3NSwzMzcuNDM3NSBaICIgZmlsbD0iIzAwMDAwMCIvPjx0ZXh0IGZpbGw9IiMwMDAwMDAiIGZvbnQtZmFtaWx5PSJzYW5zLXNlcmlmIiBmb250LXNpemU9IjE0IiBsZW5ndGhBZGp1c3Q9InNwYWNpbmciIHRleHRMZW5ndGg9IjcxIiB4PSIxNTAzLjI1IiB5PSIzNDYuNzQyMiI+RGVwYXJ0bWVudDwvdGV4dD48bGluZSBzdHlsZT0ic3Ryb2tlOiMxODE4MTg7c3Ryb2tlLXdpZHRoOjAuNTsiIHgxPSIxNDUwLjUiIHgyPSIxNTk2LjUiIHkxPSIzNTciIHkyPSIzNTciLz48cmVjdCBmaWxsPSJub25lIiBoZWlnaHQ9IjYiIHN0eWxlPSJzdHJva2U6I0M4MjkzMDtzdHJva2Utd2lkdGg6MS4wOyIgd2lkdGg9IjYiIHg9IjE0NTcuNSIgeT0iMzY2Ljk5MjIiLz48dGV4dCBmaWxsPSIjMDAwMDAwIiBmb250LWZhbWlseT0ic2Fucy1zZXJpZiIgZm9udC1zaXplPSIxNCIgbGVuZ3RoQWRqdXN0PSJzcGFjaW5nIiB0ZXh0TGVuZ3RoPSIxMjAiIHg9IjE0NjkuNSIgeT0iMzc0LjIzNDQiPmRlcGFydG1lbnRJZDogaW50PC90ZXh0PjxyZWN0IGZpbGw9Im5vbmUiIGhlaWdodD0iNiIgc3R5bGU9InN0cm9rZTojQzgyOTMwO3N0cm9rZS13aWR0aDoxLjA7IiB3aWR0aD0iNiIgeD0iMTQ1Ny41IiB5PSIzODEuOTc2NiIvPjx0ZXh0IGZpbGw9IiMwMDAwMDAiIGZvbnQtZmFtaWx5PSJzYW5zLXNlcmlmIiBmb250LXNpemU9IjE0IiBsZW5ndGhBZGp1c3Q9InNwYWNpbmciIHRleHRMZW5ndGg9Ijg1IiB4PSIxNDY5LjUiIHk9IjM4OS4yMTg4Ij5uYW1lOiBzdHJpbmc8L3RleHQ+PGxpbmUgc3R5bGU9InN0cm9rZTojMTgxODE4O3N0cm9rZS13aWR0aDowLjU7IiB4MT0iMTQ1MC41IiB4Mj0iMTU5Ni41IiB5MT0iMzk0Ljk2ODgiIHkyPSIzOTQuOTY4OCIvPjxlbGxpcHNlIGN4PSIxNDYwLjUiIGN5PSI0MDcuOTYwOSIgZmlsbD0iIzg0QkU4NCIgcng9IjMiIHJ5PSIzIiBzdHlsZT0ic3Ryb2tlOiMwMzgwNDg7c3Ryb2tlLXdpZHRoOjEuMDsiLz48dGV4dCBmaWxsPSIjMDAwMDAwIiBmb250LWZhbWlseT0ic2Fucy1zZXJpZiIgZm9udC1zaXplPSIxNCIgbGVuZ3RoQWRqdXN0PSJzcGFjaW5nIiB0ZXh0TGVuZ3RoPSIxMjIiIHg9IjE0NjkuNSIgeT0iNDEyLjIwMzEiPmdldE5hbWUoKTogc3RyaW5nPC90ZXh0PjwvZz48IS0tY2xhc3MgU2Nob29sLS0+PGcgaWQ9ImVsZW1fU2Nob29sIj48cmVjdCBjb2RlTGluZT0iODgiIGZpbGw9IiNGMUYxRjEiIGhlaWdodD0iOTIuOTUzMSIgaWQ9IlNjaG9vbCIgcng9IjIuNSIgcnk9IjIuNSIgc3R5bGU9InN0cm9rZTojMTgxODE4O3N0cm9rZS13aWR0aDowLjU7IiB3aWR0aD0iMTQ4IiB4PSIxNDQ5LjUiIHk9IjU2OCIvPjxlbGxpcHNlIGN4PSIxNDk4LjI1IiBjeT0iNTg0IiBmaWxsPSIjQUREMUIyIiByeD0iMTEiIHJ5PSIxMSIgc3R5bGU9InN0cm9rZTojMTgxODE4O3N0cm9rZS13aWR0aDoxLjA7Ii8+PHBhdGggZD0iTTE0OTUuODc1LDU4OC4yNSBMMTQ5NS44NzUsNTkwIEwxNTAwLjgxMjUsNTkwIEwxNTAwLjgxMjUsNTg4LjI1IEwxNDk1Ljg3NSw1ODguMjUgWiBNMTQ5Ni41NjI1LDU4OC45Mzc1IFExNDk2LjU2MjUsNTg4LjkzNzUgMTQ5Ni41NjI1LDU3OS43NSBMMTQ5NC44MTI1LDU3OS43NSBRMTQ5NC44MTI1LDU3OS43NSAxNDk0LjgxMjUsNTg4LjkzNzUgTDE0OTYuNTYyNSw1ODguOTM3NSBaIE0xNTAwLjEyNSw1ODguOTM3NSBMMTUwMS44NzUsNTg4LjkzNzUgUTE1MDEuODc1LDU4OC45Mzc1IDE1MDEuODc1LDU4Ni4xMjUgTDE1MDAuMTI1LDU4Ni4xMjUgUTE1MDAuMTI1LDU4Ni4xMjUgMTUwMC4xMjUsNTg4LjkzNzUgWiBNMTUwMC4xMjUsNTc5Ljc1IFExNTAwLjEyNSw1NzkuNzUgMTUwMC4xMjUsNTgyLjU2MjUgTDE1MDEuODc1LDU4Mi41NjI1IFExNTAxLjg3NSw1ODIuNTYyNSAxNTAxLjg3NSw1NzkuNzUgTDE1MDAuMTI1LDU3OS43NSBaIE0xNDk1Ljg3NSw1ODAuNDM3NSBMMTUwMC44MTI1LDU4MC40Mzc1IEwxNTAwLjgxMjUsNTc4LjY4NzUgTDE0OTUuODc1LDU3OC42ODc1IEwxNDk1Ljg3NSw1ODAuNDM3NSBaICIgZmlsbD0iIzAwMDAwMCIvPjx0ZXh0IGZpbGw9IiMwMDAwMDAiIGZvbnQtZmFtaWx5PSJzYW5zLXNlcmlmIiBmb250LXNpemU9IjE0IiBsZW5ndGhBZGp1c3Q9InNwYWNpbmciIHRleHRMZW5ndGg9IjQyIiB4PSIxNTE4Ljc1IiB5PSI1ODkuNzQyMiI+U2Nob29sPC90ZXh0PjxsaW5lIHN0eWxlPSJzdHJva2U6IzE4MTgxODtzdHJva2Utd2lkdGg6MC41OyIgeDE9IjE0NTAuNSIgeDI9IjE1OTYuNSIgeTE9IjYwMCIgeTI9IjYwMCIvPjxyZWN0IGZpbGw9Im5vbmUiIGhlaWdodD0iNiIgc3R5bGU9InN0cm9rZTojQzgyOTMwO3N0cm9rZS13aWR0aDoxLjA7IiB3aWR0aD0iNiIgeD0iMTQ1Ny41IiB5PSI2MDkuOTkyMiIvPjx0ZXh0IGZpbGw9IiMwMDAwMDAiIGZvbnQtZmFtaWx5PSJzYW5zLXNlcmlmIiBmb250LXNpemU9IjE0IiBsZW5ndGhBZGp1c3Q9InNwYWNpbmciIHRleHRMZW5ndGg9IjkxIiB4PSIxNDY5LjUiIHk9IjYxNy4yMzQ0Ij5zY2hvb2xJZDogaW50PC90ZXh0PjxyZWN0IGZpbGw9Im5vbmUiIGhlaWdodD0iNiIgc3R5bGU9InN0cm9rZTojQzgyOTMwO3N0cm9rZS13aWR0aDoxLjA7IiB3aWR0aD0iNiIgeD0iMTQ1Ny41IiB5PSI2MjQuOTc2NiIvPjx0ZXh0IGZpbGw9IiMwMDAwMDAiIGZvbnQtZmFtaWx5PSJzYW5zLXNlcmlmIiBmb250LXNpemU9IjE0IiBsZW5ndGhBZGp1c3Q9InNwYWNpbmciIHRleHRMZW5ndGg9Ijg1IiB4PSIxNDY5LjUiIHk9IjYzMi4yMTg4Ij5uYW1lOiBzdHJpbmc8L3RleHQ+PGxpbmUgc3R5bGU9InN0cm9rZTojMTgxODE4O3N0cm9rZS13aWR0aDowLjU7IiB4MT0iMTQ1MC41IiB4Mj0iMTU5Ni41IiB5MT0iNjM3Ljk2ODgiIHkyPSI2MzcuOTY4OCIvPjxlbGxpcHNlIGN4PSIxNDYwLjUiIGN5PSI2NTAuOTYwOSIgZmlsbD0iIzg0QkU4NCIgcng9IjMiIHJ5PSIzIiBzdHlsZT0ic3Ryb2tlOiMwMzgwNDg7c3Ryb2tlLXdpZHRoOjEuMDsiLz48dGV4dCBmaWxsPSIjMDAwMDAwIiBmb250LWZhbWlseT0ic2Fucy1zZXJpZiIgZm9udC1zaXplPSIxNCIgbGVuZ3RoQWRqdXN0PSJzcGFjaW5nIiB0ZXh0TGVuZ3RoPSIxMjIiIHg9IjE0NjkuNSIgeT0iNjU1LjIwMzEiPmdldE5hbWUoKTogc3RyaW5nPC90ZXh0PjwvZz48IS0tY2xhc3MgQ291cnNlLS0+PGcgaWQ9ImVsZW1fQ291cnNlIj48cmVjdCBjb2RlTGluZT0iOTQiIGZpbGw9IiNGMUYxRjEiIGhlaWdodD0iMTIyLjkyMTkiIGlkPSJDb3Vyc2UiIHJ4PSIyLjUiIHJ5PSIyLjUiIHN0eWxlPSJzdHJva2U6IzE4MTgxODtzdHJva2Utd2lkdGg6MC41OyIgd2lkdGg9IjIxOSIgeD0iMTMxMSIgeT0iNTIiLz48ZWxsaXBzZSBjeD0iMTM5NS4yNSIgY3k9IjY4IiBmaWxsPSIjQUREMUIyIiByeD0iMTEiIHJ5PSIxMSIgc3R5bGU9InN0cm9rZTojMTgxODE4O3N0cm9rZS13aWR0aDoxLjA7Ii8+PHBhdGggZD0iTTEzOTIuODc1LDcyLjI1IEwxMzkyLjg3NSw3NCBMMTM5Ny44MTI1LDc0IEwxMzk3LjgxMjUsNzIuMjUgTDEzOTIuODc1LDcyLjI1IFogTTEzOTMuNTYyNSw3Mi45Mzc1IFExMzkzLjU2MjUsNzIuOTM3NSAxMzkzLjU2MjUsNjMuNzUgTDEzOTEuODEyNSw2My43NSBRMTM5MS44MTI1LDYzLjc1IDEzOTEuODEyNSw3Mi45Mzc1IEwxMzkzLjU2MjUsNzIuOTM3NSBaIE0xMzk3LjEyNSw3Mi45Mzc1IEwxMzk4Ljg3NSw3Mi45Mzc1IFExMzk4Ljg3NSw3Mi45Mzc1IDEzOTguODc1LDcwLjEyNSBMMTM5Ny4xMjUsNzAuMTI1IFExMzk3LjEyNSw3MC4xMjUgMTM5Ny4xMjUsNzIuOTM3NSBaIE0xMzk3LjEyNSw2My43NSBRMTM5Ny4xMjUsNjMuNzUgMTM5Ny4xMjUsNjYuNTYyNSBMMTM5OC44NzUsNjYuNTYyNSBRMTM5OC44NzUsNjYuNTYyNSAxMzk4Ljg3NSw2My43NSBMMTM5Ny4xMjUsNjMuNzUgWiBNMTM5Mi44NzUsNjQuNDM3NSBMMTM5Ny44MTI1LDY0LjQzNzUgTDEzOTcuODEyNSw2Mi42ODc1IEwxMzkyLjg3NSw2Mi42ODc1IEwxMzkyLjg3NSw2NC40Mzc1IFogIiBmaWxsPSIjMDAwMDAwIi8+PHRleHQgZmlsbD0iIzAwMDAwMCIgZm9udC1mYW1pbHk9InNhbnMtc2VyaWYiIGZvbnQtc2l6ZT0iMTQiIGxlbmd0aEFkanVzdD0ic3BhY2luZyIgdGV4dExlbmd0aD0iNDIiIHg9IjE0MTUuNzUiIHk9IjczLjc0MjIiPkNvdXJzZTwvdGV4dD48bGluZSBzdHlsZT0ic3Ryb2tlOiMxODE4MTg7c3Ryb2tlLXdpZHRoOjAuNTsiIHgxPSIxMzEyIiB4Mj0iMTUyOSIgeTE9Ijg0IiB5Mj0iODQiLz48cmVjdCBmaWxsPSJub25lIiBoZWlnaHQ9IjYiIHN0eWxlPSJzdHJva2U6I0M4MjkzMDtzdHJva2Utd2lkdGg6MS4wOyIgd2lkdGg9IjYiIHg9IjEzMTkiIHk9IjkzLjk5MjIiLz48dGV4dCBmaWxsPSIjMDAwMDAwIiBmb250LWZhbWlseT0ic2Fucy1zZXJpZiIgZm9udC1zaXplPSIxNCIgbGVuZ3RoQWRqdXN0PSJzcGFjaW5nIiB0ZXh0TGVuZ3RoPSI5MSIgeD0iMTMzMSIgeT0iMTAxLjIzNDQiPmNvdXJzZUlkOiBpbnQ8L3RleHQ+PHJlY3QgZmlsbD0ibm9uZSIgaGVpZ2h0PSI2IiBzdHlsZT0ic3Ryb2tlOiNDODI5MzA7c3Ryb2tlLXdpZHRoOjEuMDsiIHdpZHRoPSI2IiB4PSIxMzE5IiB5PSIxMDguOTc2NiIvPjx0ZXh0IGZpbGw9IiMwMDAwMDAiIGZvbnQtZmFtaWx5PSJzYW5zLXNlcmlmIiBmb250LXNpemU9IjE0IiBsZW5ndGhBZGp1c3Q9InNwYWNpbmciIHRleHRMZW5ndGg9Ijg1IiB4PSIxMzMxIiB5PSIxMTYuMjE4OCI+bmFtZTogc3RyaW5nPC90ZXh0PjxyZWN0IGZpbGw9Im5vbmUiIGhlaWdodD0iNiIgc3R5bGU9InN0cm9rZTojQzgyOTMwO3N0cm9rZS13aWR0aDoxLjA7IiB3aWR0aD0iNiIgeD0iMTMxOSIgeT0iMTIzLjk2MDkiLz48dGV4dCBmaWxsPSIjMDAwMDAwIiBmb250LWZhbWlseT0ic2Fucy1zZXJpZiIgZm9udC1zaXplPSIxNCIgbGVuZ3RoQWRqdXN0PSJzcGFjaW5nIiB0ZXh0TGVuZ3RoPSIxNTYiIHg9IjEzMzEiIHk9IjEzMS4yMDMxIj5kZXBhcnRtZW50OiBEZXBhcnRtZW50PC90ZXh0PjxsaW5lIHN0eWxlPSJzdHJva2U6IzE4MTgxODtzdHJva2Utd2lkdGg6MC41OyIgeDE9IjEzMTIiIHgyPSIxNTI5IiB5MT0iMTM2Ljk1MzEiIHkyPSIxMzYuOTUzMSIvPjxlbGxpcHNlIGN4PSIxMzIyIiBjeT0iMTQ5Ljk0NTMiIGZpbGw9IiM4NEJFODQiIHJ4PSIzIiByeT0iMyIgc3R5bGU9InN0cm9rZTojMDM4MDQ4O3N0cm9rZS13aWR0aDoxLjA7Ii8+PHRleHQgZmlsbD0iIzAwMDAwMCIgZm9udC1mYW1pbHk9InNhbnMtc2VyaWYiIGZvbnQtc2l6ZT0iMTQiIGxlbmd0aEFkanVzdD0ic3BhY2luZyIgdGV4dExlbmd0aD0iMTIyIiB4PSIxMzMxIiB5PSIxNTQuMTg3NSI+Z2V0TmFtZSgpOiBzdHJpbmc8L3RleHQ+PGVsbGlwc2UgY3g9IjEzMjIiIGN5PSIxNjQuOTI5NyIgZmlsbD0iIzg0QkU4NCIgcng9IjMiIHJ5PSIzIiBzdHlsZT0ic3Ryb2tlOiMwMzgwNDg7c3Ryb2tlLXdpZHRoOjEuMDsiLz48dGV4dCBmaWxsPSIjMDAwMDAwIiBmb250LWZhbWlseT0ic2Fucy1zZXJpZiIgZm9udC1zaXplPSIxNCIgbGVuZ3RoQWRqdXN0PSJzcGFjaW5nIiB0ZXh0TGVuZ3RoPSIxOTMiIHg9IjEzMzEiIHk9IjE2OS4xNzE5Ij5nZXREZXBhcnRtZW50KCk6IERlcGFydG1lbnQ8L3RleHQ+PC9nPjwhLS1jbGFzcyBQYXN0UXVlc3Rpb25QYXBlci0tPjxnIGlkPSJlbGVtX1Bhc3RRdWVzdGlvblBhcGVyIj48cmVjdCBjb2RlTGluZT0iMTAyIiBmaWxsPSIjRjFGMUYxIiBoZWlnaHQ9IjE1Mi44OTA2IiBpZD0iUGFzdFF1ZXN0aW9uUGFwZXIiIHJ4PSIyLjUiIHJ5PSIyLjUiIHN0eWxlPSJzdHJva2U6IzE4MTgxODtzdHJva2Utd2lkdGg6MC41OyIgd2lkdGg9IjE5NCIgeD0iMTIyMC41IiB5PSIyOTUiLz48ZWxsaXBzZSBjeD0iMTI1NC44NSIgY3k9IjMxMSIgZmlsbD0iI0FERDFCMiIgcng9IjExIiByeT0iMTEiIHN0eWxlPSJzdHJva2U6IzE4MTgxODtzdHJva2Utd2lkdGg6MS4wOyIvPjxwYXRoIGQ9Ik0xMjUyLjQ3NSwzMTUuMjUgTDEyNTIuNDc1LDMxNyBMMTI1Ny40MTI1LDMxNyBMMTI1Ny40MTI1LDMxNS4yNSBMMTI1Mi40NzUsMzE1LjI1IFogTTEyNTMuMTYyNSwzMTUuOTM3NSBRMTI1My4xNjI1LDMxNS45Mzc1IDEyNTMuMTYyNSwzMDYuNzUgTDEyNTEuNDEyNSwzMDYuNzUgUTEyNTEuNDEyNSwzMDYuNzUgMTI1MS40MTI1LDMxNS45Mzc1IEwxMjUzLjE2MjUsMzE1LjkzNzUgWiBNMTI1Ni43MjUsMzE1LjkzNzUgTDEyNTguNDc1LDMxNS45Mzc1IFExMjU4LjQ3NSwzMTUuOTM3NSAxMjU4LjQ3NSwzMTMuMTI1IEwxMjU2LjcyNSwzMTMuMTI1IFExMjU2LjcyNSwzMTMuMTI1IDEyNTYuNzI1LDMxNS45Mzc1IFogTTEyNTYuNzI1LDMwNi43NSBRMTI1Ni43MjUsMzA2Ljc1IDEyNTYuNzI1LDMwOS41NjI1IEwxMjU4LjQ3NSwzMDkuNTYyNSBRMTI1OC40NzUsMzA5LjU2MjUgMTI1OC40NzUsMzA2Ljc1IEwxMjU2LjcyNSwzMDYuNzUgWiBNMTI1Mi40NzUsMzA3LjQzNzUgTDEyNTcuNDEyNSwzMDcuNDM3NSBMMTI1Ny40MTI1LDMwNS42ODc1IEwxMjUyLjQ3NSwzMDUuNjg3NSBMMTI1Mi40NzUsMzA3LjQzNzUgWiAiIGZpbGw9IiMwMDAwMDAiLz48dGV4dCBmaWxsPSIjMDAwMDAwIiBmb250LWZhbWlseT0ic2Fucy1zZXJpZiIgZm9udC1zaXplPSIxNCIgbGVuZ3RoQWRqdXN0PSJzcGFjaW5nIiB0ZXh0TGVuZ3RoPSIxMTkiIHg9IjEyNzMuMTUiIHk9IjMxNi43NDIyIj5QYXN0UXVlc3Rpb25QYXBlcjwvdGV4dD48bGluZSBzdHlsZT0ic3Ryb2tlOiMxODE4MTg7c3Ryb2tlLXdpZHRoOjAuNTsiIHgxPSIxMjIxLjUiIHgyPSIxNDEzLjUiIHkxPSIzMjciIHkyPSIzMjciLz48cmVjdCBmaWxsPSJub25lIiBoZWlnaHQ9IjYiIHN0eWxlPSJzdHJva2U6I0M4MjkzMDtzdHJva2Utd2lkdGg6MS4wOyIgd2lkdGg9IjYiIHg9IjEyMjguNSIgeT0iMzM2Ljk5MjIiLz48dGV4dCBmaWxsPSIjMDAwMDAwIiBmb250LWZhbWlseT0ic2Fucy1zZXJpZiIgZm9udC1zaXplPSIxNCIgbGVuZ3RoQWRqdXN0PSJzcGFjaW5nIiB0ZXh0TGVuZ3RoPSIxNjgiIHg9IjEyNDAuNSIgeT0iMzQ0LjIzNDQiPnBhc3RRdWVzdGlvblBhcGVySWQ6IGludDwvdGV4dD48cmVjdCBmaWxsPSJub25lIiBoZWlnaHQ9IjYiIHN0eWxlPSJzdHJva2U6I0M4MjkzMDtzdHJva2Utd2lkdGg6MS4wOyIgd2lkdGg9IjYiIHg9IjEyMjguNSIgeT0iMzUxLjk3NjYiLz48dGV4dCBmaWxsPSIjMDAwMDAwIiBmb250LWZhbWlseT0ic2Fucy1zZXJpZiIgZm9udC1zaXplPSIxNCIgbGVuZ3RoQWRqdXN0PSJzcGFjaW5nIiB0ZXh0TGVuZ3RoPSI5MSIgeD0iMTI0MC41IiB5PSIzNTkuMjE4OCI+dGl0bGU6IHN0cmluZzwvdGV4dD48cmVjdCBmaWxsPSJub25lIiBoZWlnaHQ9IjYiIHN0eWxlPSJzdHJva2U6I0M4MjkzMDtzdHJva2Utd2lkdGg6MS4wOyIgd2lkdGg9IjYiIHg9IjEyMjguNSIgeT0iMzY2Ljk2MDkiLz48dGV4dCBmaWxsPSIjMDAwMDAwIiBmb250LWZhbWlseT0ic2Fucy1zZXJpZiIgZm9udC1zaXplPSIxNCIgbGVuZ3RoQWRqdXN0PSJzcGFjaW5nIiB0ZXh0TGVuZ3RoPSIxMDUiIHg9IjEyNDAuNSIgeT0iMzc0LjIwMzEiPmNvbnRlbnQ6IHN0cmluZzwvdGV4dD48cmVjdCBmaWxsPSJub25lIiBoZWlnaHQ9IjYiIHN0eWxlPSJzdHJva2U6I0M4MjkzMDtzdHJva2Utd2lkdGg6MS4wOyIgd2lkdGg9IjYiIHg9IjEyMjguNSIgeT0iMzgxLjk0NTMiLz48dGV4dCBmaWxsPSIjMDAwMDAwIiBmb250LWZhbWlseT0ic2Fucy1zZXJpZiIgZm9udC1zaXplPSIxNCIgbGVuZ3RoQWRqdXN0PSJzcGFjaW5nIiB0ZXh0TGVuZ3RoPSI5OCIgeD0iMTI0MC41IiB5PSIzODkuMTg3NSI+Y291cnNlOiBDb3Vyc2U8L3RleHQ+PGxpbmUgc3R5bGU9InN0cm9rZTojMTgxODE4O3N0cm9rZS13aWR0aDowLjU7IiB4MT0iMTIyMS41IiB4Mj0iMTQxMy41IiB5MT0iMzk0LjkzNzUiIHkyPSIzOTQuOTM3NSIvPjxlbGxpcHNlIGN4PSIxMjMxLjUiIGN5PSI0MDcuOTI5NyIgZmlsbD0iIzg0QkU4NCIgcng9IjMiIHJ5PSIzIiBzdHlsZT0ic3Ryb2tlOiMwMzgwNDg7c3Ryb2tlLXdpZHRoOjEuMDsiLz48dGV4dCBmaWxsPSIjMDAwMDAwIiBmb250LWZhbWlseT0ic2Fucy1zZXJpZiIgZm9udC1zaXplPSIxNCIgbGVuZ3RoQWRqdXN0PSJzcGFjaW5nIiB0ZXh0TGVuZ3RoPSIxMjgiIHg9IjEyNDAuNSIgeT0iNDEyLjE3MTkiPmdldFRpdGxlKCk6IHN0cmluZzwvdGV4dD48ZWxsaXBzZSBjeD0iMTIzMS41IiBjeT0iNDIyLjkxNDEiIGZpbGw9IiM4NEJFODQiIHJ4PSIzIiByeT0iMyIgc3R5bGU9InN0cm9rZTojMDM4MDQ4O3N0cm9rZS13aWR0aDoxLjA7Ii8+PHRleHQgZmlsbD0iIzAwMDAwMCIgZm9udC1mYW1pbHk9InNhbnMtc2VyaWYiIGZvbnQtc2l6ZT0iMTQiIGxlbmd0aEFkanVzdD0ic3BhY2luZyIgdGV4dExlbmd0aD0iMTQyIiB4PSIxMjQwLjUiIHk9IjQyNy4xNTYzIj5nZXRDb250ZW50KCk6IHN0cmluZzwvdGV4dD48ZWxsaXBzZSBjeD0iMTIzMS41IiBjeT0iNDM3Ljg5ODQiIGZpbGw9IiM4NEJFODQiIHJ4PSIzIiByeT0iMyIgc3R5bGU9InN0cm9rZTojMDM4MDQ4O3N0cm9rZS13aWR0aDoxLjA7Ii8+PHRleHQgZmlsbD0iIzAwMDAwMCIgZm9udC1mYW1pbHk9InNhbnMtc2VyaWYiIGZvbnQtc2l6ZT0iMTQiIGxlbmd0aEFkanVzdD0ic3BhY2luZyIgdGV4dExlbmd0aD0iMTM1IiB4PSIxMjQwLjUiIHk9IjQ0Mi4xNDA2Ij5nZXRDb3Vyc2UoKTogQ291cnNlPC90ZXh0PjwvZz48IS0tY2xhc3MgVXNlclByb2ZpbGUtLT48ZyBpZD0iZWxlbV9Vc2VyUHJvZmlsZSI+PHJlY3QgZmlsbD0iI0YxRjFGMSIgaGVpZ2h0PSI0OCIgaWQ9IlVzZXJQcm9maWxlIiByeD0iMi41IiByeT0iMi41IiBzdHlsZT0ic3Ryb2tlOiMxODE4MTg7c3Ryb2tlLXdpZHRoOjAuNTsiIHdpZHRoPSIxMDkiIHg9IjEwNzYiIHk9IjM0Ny41Ii8+PGVsbGlwc2UgY3g9IjEwOTEiIGN5PSIzNjMuNSIgZmlsbD0iI0FERDFCMiIgcng9IjExIiByeT0iMTEiIHN0eWxlPSJzdHJva2U6IzE4MTgxODtzdHJva2Utd2lkdGg6MS4wOyIvPjxwYXRoIGQ9Ik0xMDg4LjYyNSwzNjcuNzUgTDEwODguNjI1LDM2OS41IEwxMDkzLjU2MjUsMzY5LjUgTDEwOTMuNTYyNSwzNjcuNzUgTDEwODguNjI1LDM2Ny43NSBaIE0xMDg5LjMxMjUsMzY4LjQzNzUgUTEwODkuMzEyNSwzNjguNDM3NSAxMDg5LjMxMjUsMzU5LjI1IEwxMDg3LjU2MjUsMzU5LjI1IFExMDg3LjU2MjUsMzU5LjI1IDEwODcuNTYyNSwzNjguNDM3NSBMMTA4OS4zMTI1LDM2OC40Mzc1IFogTTEwOTIuODc1LDM2OC40Mzc1IEwxMDk0LjYyNSwzNjguNDM3NSBRMTA5NC42MjUsMzY4LjQzNzUgMTA5NC42MjUsMzY1LjYyNSBMMTA5Mi44NzUsMzY1LjYyNSBRMTA5Mi44NzUsMzY1LjYyNSAxMDkyLjg3NSwzNjguNDM3NSBaIE0xMDkyLjg3NSwzNTkuMjUgUTEwOTIuODc1LDM1OS4yNSAxMDkyLjg3NSwzNjIuMDYyNSBMMTA5NC42MjUsMzYyLjA2MjUgUTEwOTQuNjI1LDM2Mi4wNjI1IDEwOTQuNjI1LDM1OS4yNSBMMTA5Mi44NzUsMzU5LjI1IFogTTEwODguNjI1LDM1OS45Mzc1IEwxMDkzLjU2MjUsMzU5LjkzNzUgTDEwOTMuNTYyNSwzNTguMTg3NSBMMTA4OC42MjUsMzU4LjE4NzUgTDEwODguNjI1LDM1OS45Mzc1IFogIiBmaWxsPSIjMDAwMDAwIi8+PHRleHQgZmlsbD0iIzAwMDAwMCIgZm9udC1mYW1pbHk9InNhbnMtc2VyaWYiIGZvbnQtc2l6ZT0iMTQiIGxlbmd0aEFkanVzdD0ic3BhY2luZyIgdGV4dExlbmd0aD0iNzciIHg9IjExMDUiIHk9IjM2OS4yNDIyIj5Vc2VyUHJvZmlsZTwvdGV4dD48bGluZSBzdHlsZT0ic3Ryb2tlOiMxODE4MTg7c3Ryb2tlLXdpZHRoOjAuNTsiIHgxPSIxMDc3IiB4Mj0iMTE4NCIgeTE9IjM3OS41IiB5Mj0iMzc5LjUiLz48bGluZSBzdHlsZT0ic3Ryb2tlOiMxODE4MTg7c3Ryb2tlLXdpZHRoOjAuNTsiIHgxPSIxMDc3IiB4Mj0iMTE4NCIgeTE9IjM4Ny41IiB5Mj0iMzg3LjUiLz48L2c+PCEtLXJldmVyc2UgbGluayBVc2VyIHRvIEFkbWluLS0+PGcgaWQ9ImxpbmtfVXNlcl9BZG1pbiI+PHBhdGggY29kZUxpbmU9IjExMiIgZD0iTTg1Ny45MjY0LDIxNS40NzQ1IEM4MTYuMjA2NCwyNDQuODE0NSA3ODUuMTMsMjY2LjY3IDc0NS4xMiwyOTQuODEgIiBmaWxsPSJub25lIiBpZD0iVXNlci1iYWNrdG8tQWRtaW4iIHN0eWxlPSJzdHJva2U6IzE4MTgxODtzdHJva2Utd2lkdGg6MS4wOyIvPjxwb2x5Z29uIGZpbGw9Im5vbmUiIHBvaW50cz0iODcyLjY1LDIwNS4xMiw4NTQuNDc0OSwyMTAuNTY2Niw4NjEuMzc3OSwyMjAuMzgyNCw4NzIuNjUsMjA1LjEyIiBzdHlsZT0ic3Ryb2tlOiMxODE4MTg7c3Ryb2tlLXdpZHRoOjEuMDsiLz48L2c+PCEtLXJldmVyc2UgbGluayBVc2VyIHRvIEFjdGl2ZVVzZXItLT48ZyBpZD0ibGlua19Vc2VyX0FjdGl2ZVVzZXIiPjxwYXRoIGNvZGVMaW5lPSIxMTMiIGQ9Ik05NjYuNTY5LDIyMi4yNDI3IEM5NTQuMzk5LDI1OS43ODI3IDk0Ni4yNSwyODQuOSA5MzUuNzUsMzE3LjMgIiBmaWxsPSJub25lIiBpZD0iVXNlci1iYWNrdG8tQWN0aXZlVXNlciIgc3R5bGU9InN0cm9rZTojMTgxODE4O3N0cm9rZS13aWR0aDoxLjA7Ii8+PHBvbHlnb24gZmlsbD0ibm9uZSIgcG9pbnRzPSI5NzIuMTIsMjA1LjEyLDk2MC44NjE1LDIyMC4zOTI0LDk3Mi4yNzY2LDIyNC4wOTMsOTcyLjEyLDIwNS4xMiIgc3R5bGU9InN0cm9rZTojMTgxODE4O3N0cm9rZS13aWR0aDoxLjA7Ii8+PC9nPjwhLS1saW5rIFVzZXIgdG8gVXNlclByb2ZpbGUtLT48ZyBpZD0ibGlua19Vc2VyX1VzZXJQcm9maWxlIj48cGF0aCBjb2RlTGluZT0iMTE1IiBkPSJNMTA0Ny4xNiwyMDUuMTIgQzEwNzIuNzUsMjU1Ljg5IDExMDIuNjcsMzE1LjI3IDExMTguNzgsMzQ3LjI1ICIgZmlsbD0ibm9uZSIgaWQ9IlVzZXItVXNlclByb2ZpbGUiIHN0eWxlPSJzdHJva2U6IzE4MTgxODtzdHJva2Utd2lkdGg6MS4wOyIvPjx0ZXh0IGZpbGw9IiMwMDAwMDAiIGZvbnQtZmFtaWx5PSJzYW5zLXNlcmlmIiBmb250LXNpemU9IjEzIiBsZW5ndGhBZGp1c3Q9InNwYWNpbmciIHRleHRMZW5ndGg9IjciIHg9IjEwNDMuNTE5NiIgeT0iMjI1LjI3Ij4xPC90ZXh0Pjx0ZXh0IGZpbGw9IiMwMDAwMDAiIGZvbnQtZmFtaWx5PSJzYW5zLXNlcmlmIiBmb250LXNpemU9IjEzIiBsZW5ndGhBZGp1c3Q9InNwYWNpbmciIHRleHRMZW5ndGg9IjciIHg9IjExMDcuNDk5NCIgeT0iMzM4LjAxOTIiPjE8L3RleHQ+PC9nPjwhLS1saW5rIFVzZXJQcm9maWxlIHRvIFN1YnNjcmlwdGlvbi0tPjxnIGlkPSJsaW5rX1VzZXJQcm9maWxlX1N1YnNjcmlwdGlvbiI+PHBhdGggY29kZUxpbmU9IjExNiIgZD0iTTExMzAuNSwzOTUuNjEgQzExMzAuNSw0MjQuODMgMTEzMC41LDQ3Ni44NiAxMTMwLjUsNTIyLjc1ICIgZmlsbD0ibm9uZSIgaWQ9IlVzZXJQcm9maWxlLVN1YnNjcmlwdGlvbiIgc3R5bGU9InN0cm9rZTojMTgxODE4O3N0cm9rZS13aWR0aDoxLjA7Ii8+PHRleHQgZmlsbD0iIzAwMDAwMCIgZm9udC1mYW1pbHk9InNhbnMtc2VyaWYiIGZvbnQtc2l6ZT0iMTMiIGxlbmd0aEFkanVzdD0ic3BhY2luZyIgdGV4dExlbmd0aD0iNyIgeD0iMTEyMi42MDMxIiB5PSI0MTUuODYiPjE8L3RleHQ+PHRleHQgZmlsbD0iIzAwMDAwMCIgZm9udC1mYW1pbHk9InNhbnMtc2VyaWYiIGZvbnQtc2l6ZT0iMTMiIGxlbmd0aEFkanVzdD0ic3BhY2luZyIgdGV4dExlbmd0aD0iNyIgeD0iMTEyMy4xODgzIiB5PSI1MTMuMzM1NiI+MTwvdGV4dD48L2c+PCEtLWxpbmsgVXNlciB0byBQYXN0UXVlc3Rpb25QYXBlci0tPjxnIGlkPSJsaW5rX1VzZXJfUGFzdFF1ZXN0aW9uUGFwZXIiPjxwYXRoIGNvZGVMaW5lPSIxMTciIGQ9Ik0xMTEzLjM1LDIwNS4xMiBDMTE0OS41NywyMzQuNDYgMTE4OS4zNCwyNjYuNjcgMTIyNC4wOCwyOTQuODEgIiBmaWxsPSJub25lIiBpZD0iVXNlci1QYXN0UXVlc3Rpb25QYXBlciIgc3R5bGU9InN0cm9rZTojMTgxODE4O3N0cm9rZS13aWR0aDoxLjA7Ii8+PHRleHQgZmlsbD0iIzAwMDAwMCIgZm9udC1mYW1pbHk9InNhbnMtc2VyaWYiIGZvbnQtc2l6ZT0iMTMiIGxlbmd0aEFkanVzdD0ic3BhY2luZyIgdGV4dExlbmd0aD0iNyIgeD0iMTExNC45ODQxIiB5PSIyMjUuMjciPjE8L3RleHQ+PHRleHQgZmlsbD0iIzAwMDAwMCIgZm9udC1mYW1pbHk9InNhbnMtc2VyaWYiIGZvbnQtc2l6ZT0iMTMiIGxlbmd0aEFkanVzdD0ic3BhY2luZyIgdGV4dExlbmd0aD0iMjUiIHg9IjExODguMTU3IiB5PSIyODUuNTcyOSI+MC4uKjwvdGV4dD48L2c+PCEtLWxpbmsgQ291cnNlIHRvIFBhc3RRdWVzdGlvblBhcGVyLS0+PGcgaWQ9ImxpbmtfQ291cnNlX1Bhc3RRdWVzdGlvblBhcGVyIj48cGF0aCBjb2RlTGluZT0iMTE4IiBkPSJNMTM5Ni4wOSwxNzUuMTcgQzEzODEuNjksMjEwLjk1IDEzNjMuMzUsMjU2LjU0IDEzNDgsMjk0LjY4ICIgZmlsbD0ibm9uZSIgaWQ9IkNvdXJzZS1QYXN0UXVlc3Rpb25QYXBlciIgc3R5bGU9InN0cm9rZTojMTgxODE4O3N0cm9rZS13aWR0aDoxLjA7Ii8+PHRleHQgZmlsbD0iIzAwMDAwMCIgZm9udC1mYW1pbHk9InNhbnMtc2VyaWYiIGZvbnQtc2l6ZT0iMTMiIGxlbmd0aEFkanVzdD0ic3BhY2luZyIgdGV4dExlbmd0aD0iNyIgeD0iMTM4NS44NjI5IiB5PSIxOTUuMzk4NiI+MTwvdGV4dD48dGV4dCBmaWxsPSIjMDAwMDAwIiBmb250LWZhbWlseT0ic2Fucy1zZXJpZiIgZm9udC1zaXplPSIxMyIgbGVuZ3RoQWRqdXN0PSJzcGFjaW5nIiB0ZXh0TGVuZ3RoPSIyNSIgeD0iMTMyNC44NTYzIiB5PSIyODUuNDI5NSI+MC4uKjwvdGV4dD48L2c+PCEtLWxpbmsgQ291cnNlIHRvIERlcGFydG1lbnQtLT48ZyBpZD0ibGlua19Db3Vyc2VfRGVwYXJ0bWVudCI+PHBhdGggY29kZUxpbmU9IjExOSIgZD0iTTE0NDQuOTEsMTc1LjE3IEMxNDYzLjM1LDIyMSAxNDg4LjI3LDI4Mi45NCAxNTA1LjA3LDMyNC42OCAiIGZpbGw9Im5vbmUiIGlkPSJDb3Vyc2UtRGVwYXJ0bWVudCIgc3R5bGU9InN0cm9rZTojMTgxODE4O3N0cm9rZS13aWR0aDoxLjA7Ii8+PHRleHQgZmlsbD0iIzAwMDAwMCIgZm9udC1mYW1pbHk9InNhbnMtc2VyaWYiIGZvbnQtc2l6ZT0iMTMiIGxlbmd0aEFkanVzdD0ic3BhY2luZyIgdGV4dExlbmd0aD0iNyIgeD0iMTQ0MC4zMjc3IiB5PSIxOTUuMzk4NiI+MTwvdGV4dD48dGV4dCBmaWxsPSIjMDAwMDAwIiBmb250LWZhbWlseT0ic2Fucy1zZXJpZiIgZm9udC1zaXplPSIxMyIgbGVuZ3RoQWRqdXN0PSJzcGFjaW5nIiB0ZXh0TGVuZ3RoPSI3IiB4PSIxNDk0LjQzNzgiIHk9IjMxNS4yMTc1Ij4xPC90ZXh0PjwvZz48IS0tbGluayBEZXBhcnRtZW50IHRvIFNjaG9vbC0tPjxnIGlkPSJsaW5rX0RlcGFydG1lbnRfU2Nob29sIj48cGF0aCBjb2RlTGluZT0iMTIwIiBkPSJNMTUyMy41LDQxOC4xMSBDMTUyMy41LDQ2MC45NiAxNTIzLjUsNTI0Ljc0IDE1MjMuNSw1NjcuNjYgIiBmaWxsPSJub25lIiBpZD0iRGVwYXJ0bWVudC1TY2hvb2wiIHN0eWxlPSJzdHJva2U6IzE4MTgxODtzdHJva2Utd2lkdGg6MS4wOyIvPjx0ZXh0IGZpbGw9IiMwMDAwMDAiIGZvbnQtZmFtaWx5PSJzYW5zLXNlcmlmIiBmb250LXNpemU9IjEzIiBsZW5ndGhBZGp1c3Q9InNwYWNpbmciIHRleHRMZW5ndGg9IjciIHg9IjE1MTUuOTg1OSIgeT0iNDM4LjI3MDIiPjE8L3RleHQ+PHRleHQgZmlsbD0iIzAwMDAwMCIgZm9udC1mYW1pbHk9InNhbnMtc2VyaWYiIGZvbnQtc2l6ZT0iMTMiIGxlbmd0aEFkanVzdD0ic3BhY2luZyIgdGV4dExlbmd0aD0iNyIgeD0iMTUxNS45NDIyIiB5PSI1NTguNTI0NiI+MTwvdGV4dD48L2c+PCEtLVNSQz1bZkxQQlJuaVg0Qnh4TG8yVnRBUUVza2tnYnlIRXI0Zkx2RVJIRXJ3bVl4ZUJnbUtTTU10X1VtVk9QR1ZPQWdzSVctdHZ2bDdEMnFaVEtBdDlhLU96LVJhV3lCU2M1ZUpGaDI5MjZlSDhzbEFBUURDQlVIcFczYm9WTFN5b2NCVEtEMWRNZ21ReXgtNXB6RXRMR0paQ0tVLTJ1NUtOZjU1NzhMU3Z2eGsyeGFyNXpXZVlLWmF2QWNqTVc5LUtPMERlRXFPRDduWE1TeElaX1VfNWVsUlRrNkFqYUI0VE1VZU52Q1lEYW5tRkdiaWd3UDZ4aTNoQjg2V3NJWGVrcFFwa21VdnJ0T2xFMjJMcHh2RldwclpfSU1ZWi1kRGNMTERQeW1SUmhTZ29RWURFRjFickNIUUQ4Ykc0bnZrQXByZGNoUDhNbkhvbVJTbTJhd1FCUHl1VEptYVUwSGRUM0V0RDVlUFI0VlN2UmZ6YTFJUHFnM3JWY0FtTzVwaWxBRjg1d3Y3SWNLSzJoeGU5bDliWVA1d1hQT3RELTJPT0x4NEI5b1RidkdsSnY4VUVTSklXSDZGeF9ESlBoYjZLU05QejNXaV9tM05hVHVHVGdhODZjcTZTUWRicWwydmI1Q3FoalpvUFZBdi1rbHlvMnlTcWQzT2N1ZEtaa1RFYXNRSGo2azdPaGg2OGo2RjVCVUw5eFcxNVlTTjhFdGZrdUtwNmM1c0dveWlsUUh6amJQTWM4YXBQX05JVjFUVFl6R09TNWlUT05Pc0NHS0dUV2tYYlJ3dXlhU0NIYlRWaTloUG80bkNFZnF2OU9fTXRGTG45Q0Q0VmUzV1NmakZlZkJHNTF6aXFULU56TnJ4cWRsenNpOXZSWEhsZENaVUFCVV9XUTJOSk8xNXdwT21Wd2t6bXhnUmdsRllRVzFqYlV5c2RGVkpZMm01bkNITWd6UXppd0NJRGpkeEdhb1RRT2NzLU1neFRlVHBIM2p0a05RdnYtTlFmbW9qTGVBeDZRWVp6Ny11OXpEWUxBWFYzUU9QZUs4WF9hcHgtTWdfM3F1bGItNk9ETGlpRkltQXUteUJfRVEzVnMySHZjWEJfenZVTlJ2VGJ4blIzVEZfSjNCeEdRRDBrdXJweXZscTFdLS0+PC9nPjwvc3ZnPg==;" vertex="1" parent="1">
            <mxGeometry x="-1840" y="90" width="1604" height="712" as="geometry" />
          </mxCell>
        </UserObject>
      </root>
    </mxGraphModel>
  </diagram>
</mxfile>
